<svg width="20" height="21" viewBox="0 0 20 21" fill="none" xmlns="http://www.w3.org/2000/svg">
<path d="M15.3334 18.5L15.4902 18.0252L15.2722 17.9532L15.0755 18.0716L15.3334 18.5ZM18 15.8333L17.5788 15.5638L17.45 15.7652L17.5258 15.9918L18 15.8333ZM19.3334 19.8211L19.1765 20.2959C19.3562 20.3552 19.554 20.308 19.6876 20.174C19.8211 20.0399 19.8675 19.842 19.8075 19.6625L19.3334 19.8211ZM15.0755 18.0716C13.7679 18.8588 11.6969 19.3211 10 19.3211V20.3211C11.8258 20.3211 14.0882 19.8333 15.5913 18.9283L15.0755 18.0716ZM10 19.3211C5.12118 19.3211 1.16669 15.3688 1.16669 10.4939H0.166687C0.166687 15.9217 4.56953 20.3211 10 20.3211V19.3211ZM1.16669 10.4939C1.16669 5.61908 5.12119 1.66663 10 1.66663V0.666626C4.56951 0.666626 0.166687 5.06618 0.166687 10.4939H1.16669ZM10 1.66663C14.8788 1.66663 18.8334 5.61908 18.8334 10.4939H19.8334C19.8334 5.06618 15.4305 0.666626 10 0.666626V1.66663ZM18.8334 10.4939C18.8334 12.2868 18.436 14.2241 17.5788 15.5638L18.4212 16.1028C19.4174 14.5457 19.8334 12.3973 19.8334 10.4939H18.8334ZM15.1765 18.9747L19.1765 20.2959L19.4902 19.3463L15.4902 18.0252L15.1765 18.9747ZM19.8075 19.6625L18.4742 15.6747L17.5258 15.9918L18.8592 19.9796L19.8075 19.6625Z" fill="#3E4F43"/>
</svg>
