<svg width="20" height="21" viewBox="0 0 20 21" fill="none" xmlns="http://www.w3.org/2000/svg">
<path d="M15.3334 18.5001L15.4902 18.0253L15.2722 17.9533L15.0755 18.0717L15.3334 18.5001ZM18 15.8334L17.5788 15.5639L17.45 15.7653L17.5258 15.992L18 15.8334ZM19.3334 19.8212L19.1765 20.296C19.3562 20.3553 19.554 20.3082 19.6876 20.1741C19.8211 20.0401 19.8675 19.8421 19.8075 19.6627L19.3334 19.8212ZM15.0755 18.0717C13.7679 18.859 11.6969 19.3212 10 19.3212V20.3212C11.8258 20.3212 14.0882 19.8334 15.5913 18.9284L15.0755 18.0717ZM10 19.3212C5.12118 19.3212 1.16669 15.3689 1.16669 10.4941H0.166687C0.166687 15.9218 4.56953 20.3212 10 20.3212V19.3212ZM1.16669 10.4941C1.16669 5.6192 5.12119 1.66675 10 1.66675V0.666748C4.56951 0.666748 0.166687 5.06631 0.166687 10.4941H1.16669ZM10 1.66675C14.8788 1.66675 18.8334 5.6192 18.8334 10.4941H19.8334C19.8334 5.06631 15.4305 0.666748 10 0.666748V1.66675ZM18.8334 10.4941C18.8334 12.2869 18.436 14.2242 17.5788 15.5639L18.4212 16.1029C19.4174 14.5458 19.8334 12.3975 19.8334 10.4941H18.8334ZM15.1765 18.9749L19.1765 20.296L19.4902 19.3464L15.4902 18.0253L15.1765 18.9749ZM19.8075 19.6627L18.4742 15.6749L17.5258 15.992L18.8592 19.9798L19.8075 19.6627Z" fill="#1BAF49"/>
</svg>
