<svg width="20" height="21" viewBox="0 0 20 21" fill="none" xmlns="http://www.w3.org/2000/svg">
<path d="M10 1.1665L10.3254 0.786876C10.1382 0.62638 9.86187 0.62638 9.67462 0.786876L10 1.1665ZM0.666687 9.1665L0.341291 8.78688L0.166687 8.93654V9.1665H0.666687ZM7.33335 19.8332V20.3332C7.6095 20.3332 7.83335 20.1093 7.83335 19.8332H7.33335ZM12.6667 19.8332H12.1667C12.1667 20.1093 12.3905 20.3332 12.6667 20.3332V19.8332ZM19.3334 9.1665H19.8334V8.93654L19.6587 8.78688L19.3334 9.1665ZM2.00002 20.3332H7.33335V19.3332H2.00002V20.3332ZM19.6587 8.78688L10.3254 0.786876L9.67462 1.54613L19.008 9.54613L19.6587 8.78688ZM9.67462 0.786876L0.341291 8.78688L0.992083 9.54613L10.3254 1.54613L9.67462 0.786876ZM7.83335 19.8332V15.8332H6.83335V19.8332H7.83335ZM12.1667 15.8332V19.8332H13.1667V15.8332H12.1667ZM12.6667 20.3332H18V19.3332H12.6667V20.3332ZM19.8334 18.4998V9.1665H18.8334V18.4998H19.8334ZM0.166687 9.1665V18.4998H1.16669V9.1665H0.166687ZM10 13.6665C11.1966 13.6665 12.1667 14.6366 12.1667 15.8332H13.1667C13.1667 14.0843 11.7489 12.6665 10 12.6665V13.6665ZM10 12.6665C8.25112 12.6665 6.83335 14.0843 6.83335 15.8332H7.83335C7.83335 14.6366 8.8034 13.6665 10 13.6665V12.6665ZM18 20.3332C19.0125 20.3332 19.8334 19.5124 19.8334 18.4998H18.8334C18.8334 18.9601 18.4603 19.3332 18 19.3332V20.3332ZM2.00002 19.3332C1.53978 19.3332 1.16669 18.9601 1.16669 18.4998H0.166687C0.166687 19.5124 0.987498 20.3332 2.00002 20.3332V19.3332Z" fill="#1BAF49"/>
</svg>
