<svg width="20" height="21" viewBox="0 0 20 21" fill="none" xmlns="http://www.w3.org/2000/svg">
<path d="M10 1.16663L10.3254 0.786998C10.1382 0.626502 9.86187 0.626502 9.67462 0.786998L10 1.16663ZM0.666687 9.16663L0.341291 8.787L0.166687 8.93666V9.16663H0.666687ZM7.33335 19.8333V20.3333C7.6095 20.3333 7.83335 20.1094 7.83335 19.8333H7.33335ZM12.6667 19.8333H12.1667C12.1667 20.1094 12.3905 20.3333 12.6667 20.3333V19.8333ZM19.3334 9.16663H19.8334V8.93666L19.6587 8.787L19.3334 9.16663ZM2.00002 20.3333H7.33335V19.3333H2.00002V20.3333ZM19.6587 8.787L10.3254 0.786998L9.67462 1.54625L19.008 9.54625L19.6587 8.787ZM9.67462 0.786998L0.341291 8.787L0.992083 9.54625L10.3254 1.54625L9.67462 0.786998ZM7.83335 19.8333V15.8333H6.83335V19.8333H7.83335ZM12.1667 15.8333V19.8333H13.1667V15.8333H12.1667ZM12.6667 20.3333H18V19.3333H12.6667V20.3333ZM19.8334 18.5V9.16663H18.8334V18.5H19.8334ZM0.166687 9.16663V18.5H1.16669V9.16663H0.166687ZM10 13.6666C11.1966 13.6666 12.1667 14.6367 12.1667 15.8333H13.1667C13.1667 14.0844 11.7489 12.6666 10 12.6666V13.6666ZM10 12.6666C8.25112 12.6666 6.83335 14.0844 6.83335 15.8333H7.83335C7.83335 14.6367 8.8034 13.6666 10 13.6666V12.6666ZM18 20.3333C19.0125 20.3333 19.8334 19.5125 19.8334 18.5H18.8334C18.8334 18.9602 18.4603 19.3333 18 19.3333V20.3333ZM2.00002 19.3333C1.53978 19.3333 1.16669 18.9602 1.16669 18.5H0.166687C0.166687 19.5125 0.987498 20.3333 2.00002 20.3333V19.3333Z" fill="#3E4F43"/>
</svg>
