<svg width="20" height="21" viewBox="0 0 20 21" fill="none" xmlns="http://www.w3.org/2000/svg">
<path d="M10 2.5L10.197 2.04043C10.0712 1.98652 9.92883 1.98652 9.80306 2.04043L10 2.5ZM0.666687 6.5L0.469727 6.04043C0.285885 6.11922 0.166687 6.29999 0.166687 6.5C0.166687 6.70001 0.285885 6.88078 0.469727 6.95957L0.666687 6.5ZM10 10.5L9.80306 10.9596C9.92883 11.0135 10.0712 11.0135 10.197 10.9596L10 10.5ZM19.3334 6.5L19.5303 6.95957C19.7142 6.88078 19.8334 6.70001 19.8334 6.5C19.8334 6.29999 19.7142 6.11922 19.5303 6.04043L19.3334 6.5ZM10 14.5L9.80306 14.9596L10 15.044L10.197 14.9596L10 14.5ZM10 18.5L9.80306 18.9596L10 19.044L10.197 18.9596L10 18.5ZM9.80306 2.04043L0.469727 6.04043L0.863647 6.95957L10.197 2.95957L9.80306 2.04043ZM0.469727 6.95957L9.80306 10.9596L10.197 10.0404L0.863647 6.04043L0.469727 6.95957ZM10.197 10.9596L19.5303 6.95957L19.1364 6.04043L9.80306 10.0404L10.197 10.9596ZM19.5303 6.04043L10.197 2.04043L9.80306 2.95957L19.1364 6.95957L19.5303 6.04043ZM0.469727 10.9596L9.80306 14.9596L10.197 14.0404L0.863647 10.0404L0.469727 10.9596ZM10.197 14.9596L19.5303 10.9596L19.1364 10.0404L9.80306 14.0404L10.197 14.9596ZM0.469727 14.9596L9.80306 18.9596L10.197 18.0404L0.863647 14.0404L0.469727 14.9596ZM10.197 18.9596L19.5303 14.9596L19.1364 14.0404L9.80306 18.0404L10.197 18.9596Z" fill="#3E4F43"/>
</svg>
