<svg width="147" height="128" viewBox="0 0 147 128" fill="none" xmlns="http://www.w3.org/2000/svg">
<path d="M121.173 120.012C133.013 120.012 142.611 114.47 142.611 107.634C142.611 100.798 133.013 95.2562 121.173 95.2562C109.332 95.2562 99.7341 100.798 99.7341 107.634C99.7341 114.47 109.332 120.012 121.173 120.012Z" fill="#E0E0E0"/>
<path d="M66.9166 114.312L42.7322 100.344L70.3756 84.3845L94.5633 98.3492L66.9166 114.312Z" fill="#E0E0E0"/>
<path d="M1.06299 109.992L32.2554 128L58.4183 112.898L27.2258 94.8901L1.06299 109.992Z" fill="#E0E0E0"/>
<path d="M47.1867 25.3463V23.5734C47.1734 23.4709 47.1339 23.3737 47.072 23.291C47.0101 23.2083 46.928 23.1429 46.8334 23.1013L36.1287 16.9604C35.8736 16.8322 35.592 16.7654 35.3065 16.7654C35.021 16.7654 34.7394 16.8322 34.4843 16.9604L3.71901 34.625C3.6245 34.6667 3.54232 34.732 3.48044 34.8147C3.41855 34.8974 3.37904 34.9947 3.36572 35.0971V36.87C3.37874 36.9725 3.41813 37.0699 3.48005 37.1527C3.54198 37.2354 3.62431 37.3007 3.71901 37.3421L14.4205 43.4733C14.6756 43.6016 14.9572 43.6684 15.2427 43.6684C15.5283 43.6684 15.8098 43.6016 16.0649 43.4733L46.8302 25.8088C46.9249 25.7673 47.0073 25.7021 47.0692 25.6193C47.1311 25.5366 47.1705 25.4392 47.1835 25.3366L47.1867 25.3463Z" fill="#F0F0F0"/>
<path d="M3.71928 35.5596L14.4208 41.7005C14.6755 41.8302 14.9572 41.8978 15.243 41.8978C15.5288 41.8978 15.8106 41.8302 16.0652 41.7005L46.8305 24.0359C47.2834 23.7757 47.2834 23.355 46.8305 23.0916L36.129 16.9604C35.8739 16.8322 35.5923 16.7654 35.3068 16.7654C35.0212 16.7654 34.7397 16.8322 34.4846 16.9604L3.71928 34.625C3.26642 34.8787 3.26642 35.2994 3.71928 35.5596Z" fill="#FAFAFA"/>
<path d="M15.2427 41.8995V43.6692C14.9566 43.6734 14.674 43.606 14.4205 43.4733L3.71901 37.3485C3.62431 37.3071 3.54198 37.2418 3.48005 37.1591C3.41813 37.0763 3.37874 36.9789 3.36572 36.8764V35.1003C3.37202 35.0285 3.39512 34.9592 3.43317 34.8979C3.30791 35.126 3.40105 35.3893 3.71901 35.5724L14.4205 41.7036C14.6733 41.8382 14.9564 41.9057 15.2427 41.8995Z" fill="#E0E0E0"/>
<path d="M20.9917 26.92L30.0584 32.0877L45.0348 23.493L35.9713 18.3221L20.9917 26.92Z" fill="#E0E0E0"/>
<path d="M30.1612 31.6959L21.4156 26.6759C21.6429 25.9345 21.626 25.1396 21.3674 24.4084L30.0584 29.3738C30.0584 29.3738 30.2254 29.923 30.1612 31.6959Z" fill="white"/>
<path d="M29.6121 28.6769C29.8562 28.8346 30.0596 29.0476 30.2058 29.2988C30.352 29.5499 30.4369 29.832 30.4536 30.1221V31.8115C30.4536 32.3447 30.0746 32.5599 29.6121 32.2965L21.0046 27.3376V26.92L29.5093 31.7698C29.7888 31.9304 30.0136 31.7987 30.0136 31.4807V29.9134C30.0039 29.7393 29.9532 29.57 29.8655 29.4193C29.7779 29.2685 29.6558 29.1407 29.5093 29.0462L21.0046 24.1804V23.7051L29.6121 28.6769Z" fill="#EBEBEB"/>
<path d="M21.0046 23.7211L35.9714 15.1233L44.5885 20.0694C44.8331 20.2272 45.037 20.4408 45.1832 20.6925C45.3295 20.9443 45.414 21.2271 45.4299 21.5179V23.2169C45.4413 23.3208 45.4244 23.4258 45.3808 23.5208C45.3373 23.6158 45.2688 23.6973 45.1826 23.7565L30.2063 32.3543C30.2908 32.2938 30.3579 32.212 30.4008 32.1173C30.4436 32.0225 30.4608 31.9182 30.4504 31.8147V30.1221C30.4347 29.8318 30.3503 29.5493 30.204 29.298C30.0577 29.0467 29.8537 28.8338 29.6089 28.6768L21.0046 23.7211Z" fill="#FAFAFA"/>
<path d="M30.2063 29.2903C30.359 29.5381 30.4442 29.8216 30.4536 30.1125V31.8051C30.464 31.9086 30.4469 32.0129 30.404 32.1077C30.3612 32.2024 30.2941 32.2842 30.2095 32.3447L45.1859 23.7468C45.272 23.6877 45.3405 23.6062 45.384 23.5112C45.4276 23.4162 45.4446 23.3112 45.4332 23.2073V21.5179C45.4238 21.2269 45.3385 20.9435 45.1859 20.6957L30.2063 29.2903Z" fill="#F0F0F0"/>
<path d="M11.774 14.057L11.6873 15.2004L21.8107 20.6314L22.0387 19.9634L11.774 14.057Z" fill="#EBEBEB"/>
<path d="M21.904 20.2299L12.0985 14.5708L10.3931 15.5536L20.3912 21.4022L21.904 20.2299Z" fill="white"/>
<path d="M18.5507 20.7952L17.5872 32.1583C17.5919 32.2866 17.6273 32.4119 17.6905 32.5236C17.7536 32.6354 17.8426 32.7304 17.9501 32.8007L23.6381 36.0927C23.7288 36.1429 23.83 36.1715 23.9336 36.1762L20.4006 21.7844C20.2976 21.7787 20.1969 21.7514 20.1052 21.7041L19.6973 21.4664L18.5507 20.7952Z" fill="#E0E0E0"/>
<path d="M20.825 21.6913L21.8399 20.8209L22.5818 20.1786C22.6589 20.0565 22.7488 19.9666 22.7006 19.8574L26.1886 34.1433C26.2368 34.2428 26.2496 34.4644 26.1115 34.5479L24.3547 36.051C24.2217 36.1215 24.0707 36.1505 23.9211 36.1345L20.3882 21.7427C20.5357 21.7682 20.6874 21.7503 20.825 21.6913Z" fill="#F0F0F0"/>
<path d="M22.5849 19.7643C22.784 19.8799 22.7358 20.0084 22.5849 20.1818L20.8249 21.6881C20.7128 21.7466 20.5883 21.7772 20.4619 21.7772C20.3355 21.7772 20.211 21.7466 20.099 21.6881L18.5509 20.7952C18.3486 20.6796 18.3133 20.5126 18.4707 20.4227C18.5741 20.3807 18.6857 20.363 18.797 20.3708C18.9084 20.3786 19.0164 20.4117 19.113 20.4676L20.3335 21.1742C20.3708 21.1931 20.4121 21.203 20.4539 21.203C20.4958 21.203 20.537 21.1931 20.5743 21.1742L21.859 20.0565C21.9265 20.018 21.9265 19.957 21.859 19.9184L11.7742 14.057L12.2559 13.7776L22.5849 19.7643Z" fill="#FAFAFA"/>
<path d="M8.85132 14.6062L18.4962 20.1754V38.5273L8.85132 32.9549V14.6062Z" fill="#EBEBEB"/>
<path d="M18.1847 20.4805L8.85139 15.1233C8.28056 15.7285 7.53299 16.1377 6.71558 16.2924L15.9718 21.6271C15.9718 21.6271 16.5692 21.4858 18.1847 20.4805Z" fill="white"/>
<path d="M15.0757 21.611C15.3538 21.7503 15.6606 21.8228 15.9717 21.8228C16.2828 21.8228 16.5897 21.7503 16.8678 21.611L18.4351 20.6924C18.9298 20.4066 18.9298 19.9473 18.4351 19.6615L9.23993 14.3813L8.85131 14.6062L17.8988 19.8317C17.9655 19.8511 18.0241 19.8917 18.0658 19.9473C18.1075 20.0029 18.13 20.0705 18.13 20.14C18.13 20.2095 18.1075 20.2771 18.0658 20.3327C18.0241 20.3883 17.9655 20.4289 17.8988 20.4483L16.4374 21.2898C16.2705 21.3737 16.0863 21.4174 15.8995 21.4174C15.7127 21.4174 15.5284 21.3737 15.3615 21.2898L6.31724 16.0611L5.87402 16.3148L15.0757 21.611Z" fill="#FAFAFA"/>
<path d="M5.8772 16.3148V34.6635L15.0756 39.9436C15.3538 40.0829 15.6606 40.1555 15.9717 40.1555C16.2828 40.1555 16.5896 40.0829 16.8678 39.9436L18.4415 39.0411C18.5438 38.996 18.6321 38.9242 18.6971 38.8332C18.7621 38.7422 18.8014 38.6354 18.8109 38.524V20.1753C18.8009 20.2871 18.7606 20.394 18.6944 20.4845C18.6282 20.5751 18.5386 20.6458 18.4351 20.6892L16.8678 21.611C16.5896 21.7503 16.2828 21.8228 15.9717 21.8228C15.6606 21.8228 15.3538 21.7503 15.0756 21.611L5.8772 16.3148Z" fill="#EBEBEB"/>
<path d="M15.9718 21.8069C16.2836 21.813 16.5918 21.7401 16.8678 21.5949L18.4352 20.6892C18.5374 20.6449 18.6257 20.5737 18.6908 20.4832C18.7558 20.3927 18.7951 20.2863 18.8045 20.1753V38.524C18.795 38.6354 18.7557 38.7422 18.6907 38.8331C18.6257 38.9241 18.5375 38.9959 18.4352 39.0411L16.8614 39.9436C16.5854 40.0888 16.2771 40.1617 15.9653 40.1555L15.9718 21.8069Z" fill="#F0F0F0"/>
<path d="M93.452 88.4153C93.4038 87.6028 93.2946 86.6296 93.1629 85.4991C92.6715 81.2082 92.0003 75.3307 93.7796 69.7005C94.8619 66.2736 97.4699 62.2107 101.542 61.0834C102.448 60.8329 104.638 60.4635 105.48 62.4066C105.598 62.6874 105.669 62.9859 105.689 63.2899C105.775 64.5232 105.22 65.612 104.603 66.6044C103.893 67.7574 103.071 68.8526 102.275 69.9189C101.523 70.9274 100.743 71.968 100.062 73.0471C99.3264 74.2197 98.6821 75.4469 98.1347 76.7182L97.8746 76.6057C98.4209 75.3217 99.0652 74.0815 99.8016 72.8962C100.486 71.8074 101.269 70.7604 102.027 69.7487C102.817 68.6888 103.633 67.5968 104.34 66.4566C104.931 65.4931 105.464 64.4621 105.384 63.3091C105.366 63.0372 105.303 62.7701 105.197 62.519C104.446 60.7815 102.429 61.1284 101.597 61.3564C97.6337 62.4548 95.0868 66.4309 94.0269 69.784C92.2669 75.3596 92.9349 81.2017 93.4231 85.4669C93.5516 86.6007 93.664 87.5803 93.7121 88.3993L93.452 88.4153Z" fill="#219653"/>
<path d="M93.741 93.0851C93.7197 93.0882 93.6981 93.0882 93.6768 93.0851C93.6151 93.0731 93.5571 93.0468 93.5075 93.0083C93.4578 92.9698 93.4179 92.9202 93.3909 92.8635C93.3349 92.7045 93.3349 92.5311 93.3909 92.3721C93.4362 92.0644 93.4362 91.7517 93.3909 91.4439C93.3909 91.2705 93.362 91.0874 93.362 90.9236V88.9291C93.6185 85.3463 94.6684 81.8654 96.4357 78.7383C98.003 76.0115 99.7373 74.1969 101.896 73.0214C103.059 72.3821 104.335 71.9731 105.653 71.817C106.817 71.6884 107.987 71.9975 108.936 72.6841C109.915 73.4582 110.355 74.7846 109.986 75.8349C109.726 76.5703 109.132 77.1196 108.525 77.6174C107.442 78.5006 106.26 79.2907 105.12 80.0551C104.173 80.6974 103.193 81.3398 102.278 82.0464C99.4774 84.2078 97.1281 86.8976 95.3629 89.9633C95.0739 90.4611 94.8009 90.975 94.5504 91.4889L94.4476 91.6912C94.3474 91.8747 94.2594 92.0646 94.1842 92.2597C94.1682 92.3015 94.1521 92.3882 94.1296 92.4877C94.1133 92.6709 94.0551 92.8478 93.9594 93.0048C93.8992 93.058 93.8213 93.0866 93.741 93.0851ZM106.116 72.0835C105.971 72.0835 105.827 72.0835 105.679 72.1028C104.4 72.2521 103.161 72.6492 102.034 73.2719C99.9268 74.4185 98.2278 76.201 96.6862 78.8796C94.9426 81.9679 93.906 85.4046 93.6511 88.942V90.9172C93.6511 91.0714 93.6511 91.2384 93.68 91.415C93.7316 91.7513 93.7316 92.0936 93.68 92.4299C93.6454 92.5342 93.6454 92.6468 93.68 92.7511C93.6882 92.7674 93.7 92.7816 93.7145 92.7927C93.7289 92.8038 93.7457 92.8115 93.7635 92.8153C93.8208 92.6966 93.8598 92.5699 93.8791 92.4396C93.8944 92.3504 93.9159 92.2624 93.9434 92.1762C94.0217 91.97 94.1139 91.7693 94.2196 91.5756L94.3191 91.3765C94.5761 90.8562 94.8523 90.3391 95.1413 89.8348C95.7417 88.7956 96.4079 87.7958 97.1358 86.8415C98.5748 84.9615 100.254 83.2781 102.13 81.8344C103.055 81.1278 104.038 80.4694 104.989 79.8335C106.125 79.0723 107.298 78.2854 108.374 77.4118C108.945 76.9461 109.507 76.4226 109.745 75.7546C110.066 74.8135 109.671 73.622 108.782 72.9186C108.013 72.3459 107.073 72.0515 106.116 72.0835Z" fill="#219653"/>
<path d="M93.5002 90.3424H93.4649C93.4468 90.3383 93.4297 90.3306 93.4146 90.3197C93.3996 90.3088 93.3869 90.295 93.3773 90.2791C93.3677 90.2632 93.3614 90.2456 93.3588 90.2272C93.3562 90.2088 93.3573 90.1901 93.3621 90.1722C96.0118 79.6055 103.338 74.8907 107.25 73.7698C107.285 73.7599 107.324 73.7644 107.356 73.7824C107.389 73.8005 107.413 73.8305 107.423 73.8662C107.433 73.9024 107.429 73.941 107.411 73.974C107.393 74.007 107.363 74.0317 107.327 74.0428C103.473 75.1444 96.2559 79.7982 93.6383 90.2396C93.6293 90.2693 93.6111 90.2953 93.5862 90.3138C93.5613 90.3323 93.5312 90.3423 93.5002 90.3424Z" fill="#219653"/>
<path d="M93.4841 81.6706C93.4463 81.6673 93.4113 81.6493 93.3867 81.6205C93.3621 81.5917 93.3497 81.5543 93.3524 81.5164C94.1971 70.1051 101.661 63.8519 102.509 63.1806C102.523 63.1685 102.54 63.1595 102.558 63.1541C102.576 63.1487 102.595 63.147 102.613 63.1491C102.632 63.1512 102.65 63.157 102.666 63.1663C102.683 63.1756 102.697 63.1881 102.708 63.2031C102.72 63.2176 102.729 63.2343 102.734 63.2522C102.739 63.2701 102.74 63.2888 102.738 63.3073C102.736 63.3258 102.731 63.3437 102.722 63.36C102.712 63.3763 102.7 63.3907 102.686 63.4022C101.847 64.0671 94.4701 70.2464 93.6382 81.5389C93.6342 81.5764 93.616 81.6109 93.5873 81.6354C93.5587 81.6599 93.5217 81.6725 93.4841 81.6706Z" fill="#219653"/>
<path d="M92.5945 41.874L74.734 31.5675C74.5959 31.4684 74.434 31.4075 74.2647 31.3912C74.0955 31.3748 73.925 31.4035 73.7704 31.4744L72.4857 32.2163C72.3445 32.3147 72.2322 32.449 72.1604 32.6055C72.0887 32.762 72.0602 32.9348 72.0778 33.106V81.9919C72.1041 82.4682 72.2422 82.9316 72.481 83.3446C72.7199 83.7575 73.0527 84.1083 73.4525 84.3686L91.3098 94.6622C91.4476 94.7619 91.6093 94.8233 91.7785 94.8402C91.9478 94.8571 92.1185 94.829 92.2733 94.7586L93.558 94.0134C93.6975 93.9146 93.8083 93.7804 93.8788 93.6246C93.9494 93.4688 93.9772 93.2971 93.9594 93.127V44.2507C93.9345 43.7752 93.798 43.3122 93.5608 42.8993C93.3237 42.4864 92.9926 42.1352 92.5945 41.874Z" fill="#263238"/>
<path d="M75.9251 82.8301L74.6404 83.572V87.6381C74.6469 87.7571 74.6814 87.873 74.7411 87.9763C74.8008 88.0795 74.884 88.1672 74.984 88.2322L75.5846 88.5791C75.6912 88.633 75.8089 88.6611 75.9283 88.6611C76.0477 88.6611 76.1654 88.633 76.2719 88.5791L76.8725 88.2322C77.0859 88.0944 77.251 87.8934 77.3447 87.6573L78.5041 84.3171L75.9251 82.8301Z" fill="#263238"/>
<path d="M74.6404 87.6381C74.6469 87.7572 74.6814 87.8731 74.7411 87.9763C74.8008 88.0795 74.884 88.1672 74.984 88.2323L75.5846 88.5791C75.6261 88.6042 75.6728 88.6196 75.7211 88.6241C75.7694 88.6287 75.8181 88.6222 75.8635 88.6052C75.9089 88.5882 75.9499 88.5611 75.9834 88.526C76.0169 88.4909 76.0419 88.4487 76.0568 88.4025L77.2098 85.059L74.6404 83.572V87.6381Z" fill="#37474F"/>
<path d="M88.8106 90.246L87.5259 90.9911V95.0539C87.5318 95.1733 87.5657 95.2895 87.6248 95.3933C87.6839 95.497 87.7667 95.5855 87.8663 95.6513L88.4701 95.9982C88.5761 96.0521 88.6933 96.0802 88.8122 96.0802C88.9311 96.0802 89.0483 96.0521 89.1542 95.9982L89.758 95.6513C89.9714 95.5135 90.1365 95.3125 90.2302 95.0764L91.3864 91.733L88.8106 90.246Z" fill="#263238"/>
<path d="M87.5259 95.054C87.5318 95.1733 87.5657 95.2895 87.6248 95.3933C87.6839 95.497 87.7667 95.5855 87.8663 95.6513L88.4701 95.9982C88.5116 96.0233 88.5583 96.0387 88.6066 96.0432C88.6549 96.0477 88.7036 96.0412 88.749 96.0242C88.7944 96.0072 88.8354 95.9802 88.8689 95.9451C88.9023 95.91 88.9274 95.8677 88.9423 95.8216L90.1017 92.4781L87.5323 90.9911L87.5259 95.054Z" fill="#37474F"/>
<path d="M73.5356 32.3479L91.3929 42.6255C91.7928 42.8865 92.1256 43.2379 92.3644 43.6514C92.6032 44.0648 92.7413 44.5287 92.7675 45.0054V93.8913C92.8015 94.063 92.7809 94.2411 92.7086 94.4005C92.6362 94.5598 92.5158 94.6926 92.3642 94.7801C92.2126 94.8676 92.0374 94.9054 91.8632 94.8883C91.6891 94.8712 91.5246 94.8 91.3929 94.6846L73.5356 84.3878C73.1363 84.1274 72.804 83.7764 72.5657 83.3635C72.3274 82.9505 72.1898 82.4872 72.1642 82.0111V33.138C72.1299 32.9666 72.1502 32.7888 72.2223 32.6295C72.2944 32.4703 72.4147 32.3377 72.5661 32.2504C72.7176 32.1631 72.8927 32.1256 73.0666 32.1431C73.2405 32.1606 73.4046 32.2323 73.5356 32.3479Z" fill="#37474F"/>
<path d="M47.6042 99.1682L66.9197 110.319L93.9625 94.7071L92.6746 93.962L73.3592 82.8108L47.6042 97.6812V99.1682Z" fill="#455A64"/>
<path d="M66.9194 110.319V108.832L93.9623 93.22V94.707L66.9194 110.319Z" fill="#263238"/>
<path d="M67.0414 108.155L66.8455 108.023C70.2724 102.836 70.2499 93.8753 69.9705 91.627C69.948 91.4761 69.9319 91.383 69.9287 91.3476L70.1632 91.3091C70.1632 91.3797 70.1889 91.4632 70.2017 91.5628C70.4522 93.1526 71.8686 101.789 73.5452 104.41L73.346 104.538C72.0196 102.48 70.8858 96.9232 70.3174 93.7179C70.3527 97.3568 69.8227 103.97 67.0414 108.155Z" fill="#FAFAFA"/>
<path d="M78.3212 100.235C78.029 100.148 71.2008 98.0795 70.5713 95.0669L70.8057 95.0187C71.4031 97.8932 78.318 99.9872 78.3887 100.01L78.3212 100.235Z" fill="#FAFAFA"/>
<path d="M71.4287 99.014L71.2553 98.2786C71.2315 98.1435 71.1627 98.0204 71.0601 97.9294C70.9574 97.8384 70.827 97.7849 70.69 97.7775C70.5769 97.761 70.4615 97.7795 70.3593 97.8306C70.2571 97.8818 70.173 97.963 70.1183 98.0634L69.8967 97.9702C69.9711 97.8233 70.0891 97.703 70.2346 97.626C70.3802 97.5489 70.546 97.5188 70.7093 97.5399C70.8275 97.5473 70.9427 97.5798 71.0474 97.6352C71.152 97.6905 71.2437 97.7675 71.3163 97.861C71.3549 97.5565 71.5103 97.2789 71.7499 97.087C71.8407 97.0395 71.9423 97.0164 72.0447 97.0197C72.1471 97.0231 72.2469 97.0529 72.3344 97.1063L72.2285 97.3182C72.1749 97.2838 72.1135 97.2637 72.0499 97.2597C71.9864 97.2558 71.9229 97.2682 71.8655 97.2958C71.5925 97.4499 71.4865 98.0441 71.4705 98.2593L71.4287 99.014Z" fill="#FAFAFA"/>
<path d="M72.1002 101.465L71.8882 100.797C71.6474 100.042 71.2459 99.6082 70.7706 99.5793C70.572 99.5755 70.3766 99.6296 70.2083 99.7352C70.04 99.8407 69.9061 99.993 69.8231 100.173L69.6079 100.071C69.7095 99.8452 69.8758 99.6549 70.0856 99.524C70.2954 99.393 70.5394 99.3273 70.7866 99.3352C71.0725 99.3512 71.5639 99.5054 71.93 100.251C72.0103 99.6628 72.2512 98.7185 72.871 98.3235C73.0935 98.2016 73.3437 98.139 73.5974 98.1418C73.8511 98.1446 74.0998 98.2127 74.3195 98.3395L74.22 98.5547C74.036 98.4459 73.8272 98.3861 73.6135 98.3811C73.3998 98.376 73.1884 98.4259 72.9995 98.5258C72.1741 99.0397 72.1195 100.739 72.1195 100.758L72.1002 101.465Z" fill="#FAFAFA"/>
<path d="M69.2 103.096L68.988 102.987C69.4634 102.072 70.5072 101.413 71.4129 101.458C71.605 101.46 71.7942 101.506 71.9666 101.591C72.1389 101.676 72.2899 101.798 72.4085 101.95C72.4957 101.487 72.6755 101.048 72.9372 100.657C73.1988 100.266 73.5368 99.9324 73.9309 99.6757C74.3538 99.3948 74.8418 99.2275 75.348 99.1898C75.8543 99.1521 76.3617 99.2453 76.8215 99.4605L76.7283 99.6757C76.3048 99.4796 75.8382 99.395 75.3728 99.4299C74.9074 99.4647 74.4586 99.6179 74.069 99.8748C73.6524 100.145 73.3048 100.508 73.0538 100.937C72.8029 101.365 72.6556 101.846 72.6237 102.341V102.948L72.3989 102.383C72.3244 102.182 72.1905 102.009 72.0149 101.886C71.8393 101.763 71.6304 101.697 71.4161 101.696C70.5843 101.654 69.6368 102.258 69.2 103.096Z" fill="#FAFAFA"/>
<path d="M67.8958 106.642L67.687 106.526C67.9761 106 69.5145 103.353 71.3356 102.875C71.5926 102.801 71.8623 102.783 72.1269 102.821C72.3915 102.859 72.6451 102.953 72.8708 103.096L72.7487 103.299C72.5497 103.173 72.3265 103.09 72.0935 103.057C71.8605 103.023 71.6231 103.039 71.3966 103.103C70.0605 103.456 68.6794 105.229 67.8958 106.642Z" fill="#FAFAFA"/>
<path d="M91.3867 78.3497V79.8367L66.9197 93.9619L47.6042 82.8108V81.3237L72.0713 67.1985L91.3867 78.3497Z" fill="#263238"/>
<path d="M91.3867 78.3497L66.9197 92.4749L47.6042 81.3237L72.0713 67.1985L91.3867 78.3497Z" fill="#455A64"/>
<path d="M91.3867 61.9954V63.4793L66.9197 77.6077L47.6042 66.4533V64.9695L72.0713 50.8411L91.3867 61.9954Z" fill="#263238"/>
<path d="M91.3867 61.9954L66.9197 76.1207L47.6042 64.9695L72.0713 50.8411L91.3867 61.9954Z" fill="#455A64"/>
<path d="M66.836 56.7251L48.9788 46.4314C48.841 46.3318 48.6792 46.2704 48.51 46.2534C48.3408 46.2365 48.1701 46.2647 48.0152 46.3351C47.784 46.4668 46.9618 46.9453 46.7305 47.077C46.5899 47.1757 46.4782 47.3103 46.407 47.4667C46.3359 47.6231 46.3079 47.7958 46.3259 47.9667V96.8397C46.3521 97.3161 46.4902 97.7795 46.7291 98.1924C46.9679 98.6053 47.3007 98.9562 47.7005 99.2164L65.5578 109.513C65.6956 109.613 65.8573 109.674 66.0266 109.691C66.1958 109.708 66.3665 109.68 66.5213 109.61C66.7525 109.475 67.5812 108.999 67.806 108.861C67.9473 108.764 68.06 108.63 68.1322 108.474C68.2045 108.318 68.2338 108.146 68.2171 107.975V59.105C68.1906 58.6275 68.0518 58.1631 67.8118 57.7495C67.5718 57.336 67.2374 56.9849 66.836 56.7251Z" fill="#263238"/>
<path opacity="0.2" d="M66.92 64.2278L68.2111 63.4826V59.0183L66.9167 59.7634L66.92 64.2278Z" fill="black"/>
<path opacity="0.2" d="M92.6775 49.3574L93.9686 48.6154V44.1511L92.6743 44.8962L92.6775 49.3574Z" fill="black"/>
<path d="M50.18 97.6813L48.8953 98.4232V102.489C48.9018 102.608 48.9363 102.724 48.996 102.827C49.0557 102.931 49.1389 103.018 49.2389 103.083L49.8395 103.43C49.9461 103.484 50.0638 103.512 50.1832 103.512C50.3026 103.512 50.4203 103.484 50.5268 103.43L51.1274 103.083C51.34 102.946 51.5049 102.746 51.5995 102.512L52.759 99.1683L50.18 97.6813Z" fill="#263238"/>
<path d="M48.8921 102.489C48.8986 102.608 48.9331 102.724 48.9928 102.827C49.0525 102.931 49.1358 103.018 49.2357 103.083L49.8363 103.43C49.8778 103.455 49.9245 103.471 49.9728 103.475C50.0211 103.48 50.0698 103.473 50.1152 103.456C50.1606 103.439 50.2016 103.412 50.2351 103.377C50.2686 103.342 50.2937 103.3 50.3085 103.254L51.4679 99.9101L48.8985 98.4231L48.8921 102.489Z" fill="#37474F"/>
<path d="M63.0557 105.116L61.771 105.858V109.924C61.7769 110.043 61.8108 110.159 61.87 110.262C61.9291 110.366 62.0119 110.453 62.1114 110.519L62.7152 110.865C62.8212 110.919 62.9384 110.947 63.0573 110.947C63.1762 110.947 63.2934 110.919 63.3994 110.865L64.0032 110.519C64.2149 110.38 64.3796 110.181 64.4753 109.947L65.6315 106.603L63.0557 105.116Z" fill="#263238"/>
<path d="M61.771 109.908C61.7769 110.027 61.8108 110.143 61.87 110.246C61.9291 110.35 62.0119 110.437 62.1114 110.503L62.7152 110.849C62.7567 110.875 62.8034 110.89 62.8517 110.894C62.9 110.899 62.9487 110.892 62.9941 110.875C63.0395 110.858 63.0805 110.831 63.114 110.796C63.1475 110.761 63.1726 110.719 63.1874 110.673L64.3436 107.329L61.7742 105.842L61.771 109.908Z" fill="#37474F"/>
<path d="M47.6877 47.1766L65.5482 57.4702C65.9477 57.7313 66.28 58.0828 66.5182 58.4963C66.7565 58.9098 66.894 59.3736 66.9197 59.8501V110.319C66.9197 110.319 65.9272 109.732 65.5482 109.513L47.691 99.2164C47.2912 98.9562 46.9584 98.6053 46.7195 98.1924C46.4807 97.7794 46.3426 97.316 46.3163 96.8397V47.9666C46.282 47.7952 46.3023 47.6174 46.3744 47.4581C46.4465 47.2989 46.5668 47.1663 46.7182 47.079C46.8697 46.9918 47.0448 46.9542 47.2187 46.9717C47.3926 46.9892 47.5567 47.0609 47.6877 47.1766Z" fill="#37474F"/>
<path opacity="0.2" d="M65.5482 57.4702L47.6877 47.1766C47.5567 47.0609 47.3926 46.9892 47.2187 46.9717C47.0448 46.9542 46.8697 46.9918 46.7182 47.079C46.5668 47.1663 46.4465 47.2989 46.3744 47.4581C46.3023 47.6174 46.282 47.7952 46.3163 47.9666V52.3314L66.9197 64.2148V59.8501C66.894 59.3736 66.7565 58.9098 66.5182 58.4963C66.28 58.0828 65.9477 57.7313 65.5482 57.4702Z" fill="black"/>
<path d="M90.0988 62.1143C90.0675 62.1135 90.0377 62.1007 90.0156 62.0786C89.9935 62.0565 89.9807 62.0268 89.9799 61.9955V47.3307L75.9928 55.405C75.9797 55.4135 75.965 55.4192 75.9496 55.4217C75.9342 55.4242 75.9184 55.4234 75.9033 55.4195C75.8882 55.4156 75.8741 55.4086 75.8618 55.3989C75.8496 55.3892 75.8395 55.3771 75.8322 55.3633C75.8241 55.3498 75.8187 55.3348 75.8165 55.3193C75.8142 55.3037 75.815 55.2879 75.8189 55.2726C75.8227 55.2574 75.8296 55.2431 75.8391 55.2305C75.8485 55.218 75.8604 55.2074 75.8739 55.1995L90.057 47.0224C90.0748 47.0113 90.0954 47.0054 90.1164 47.0054C90.1374 47.0054 90.158 47.0113 90.1758 47.0224C90.1936 47.033 90.2083 47.048 90.2184 47.0661C90.2285 47.0841 90.2338 47.1045 90.2336 47.1251V61.9955C90.2338 62.0126 90.2303 62.0294 90.2233 62.045C90.2164 62.0606 90.2062 62.0745 90.1934 62.0858C90.1806 62.097 90.1655 62.1054 90.1492 62.1103C90.1328 62.1153 90.1157 62.1166 90.0988 62.1143Z" fill="#FAFAFA"/>
<path d="M87.5228 58.3951H87.4875C87.4568 58.3882 87.4302 58.3695 87.4134 58.343C87.3965 58.3165 87.3908 58.2845 87.3975 58.2538L89.7935 47.8767L85.0401 56.1084C85.0328 56.1221 85.0227 56.1342 85.0105 56.1439C84.9984 56.1537 84.9844 56.1608 84.9694 56.165C84.9544 56.1692 84.9387 56.1704 84.9233 56.1684C84.9078 56.1663 84.8929 56.1612 84.8795 56.1533C84.8657 56.1456 84.8535 56.1353 84.8438 56.1228C84.834 56.1104 84.8268 56.0961 84.8226 56.0809C84.8184 56.0656 84.8173 56.0497 84.8194 56.034C84.8214 56.0183 84.8266 56.0032 84.8346 55.9895L89.9733 47.0673C89.9881 47.0428 90.0109 47.0242 90.0379 47.0148C90.0649 47.0054 90.0943 47.0058 90.1211 47.0159C90.1475 47.0267 90.1691 47.0465 90.1821 47.0718C90.195 47.0972 90.1985 47.1264 90.1917 47.154L87.6224 58.3084C87.6166 58.3313 87.604 58.3519 87.5862 58.3674C87.5684 58.3829 87.5462 58.3926 87.5228 58.3951Z" fill="#FAFAFA"/>
<path d="M82.3744 54.692C82.3581 54.6921 82.3419 54.6887 82.3269 54.682C82.312 54.6754 82.2986 54.6656 82.2877 54.6534C82.2657 54.6312 82.2534 54.6012 82.2534 54.5699C82.2534 54.5387 82.2657 54.5087 82.2877 54.4864L90.0152 47.0513C90.0374 47.0293 90.0674 47.017 90.0987 47.017C90.1299 47.017 90.1599 47.0293 90.1822 47.0513C90.2043 47.074 90.2167 47.1046 90.2167 47.1364C90.2167 47.1682 90.2043 47.1987 90.1822 47.2215L82.4547 54.6534C82.4445 54.6649 82.4322 54.6741 82.4184 54.6808C82.4046 54.6874 82.3897 54.6912 82.3744 54.692Z" fill="#FAFAFA"/>
<path d="M90.0988 59.7409C90.0676 59.7401 90.0378 59.7273 90.0157 59.7052C89.9936 59.6831 89.9808 59.6534 89.98 59.6221C89.98 57.6758 87.8089 57.5441 87.7157 57.5409C87.6982 57.5396 87.6811 57.5347 87.6656 57.5264C87.6501 57.5181 87.6366 57.5066 87.6258 57.4927C87.6157 57.479 87.6087 57.4633 87.6054 57.4467C87.6021 57.43 87.6025 57.4128 87.6065 57.3964C87.6857 56.9987 87.6589 56.5873 87.5287 56.2033C87.3984 55.8194 87.1694 55.4765 86.8646 55.2092C86.7532 55.098 86.6194 55.0119 86.4721 54.9565C86.3247 54.9011 86.1673 54.8778 86.0103 54.888C85.9265 54.9022 85.8467 54.9342 85.7764 54.9818C85.706 55.0295 85.6467 55.0917 85.6024 55.1642C85.589 55.1876 85.568 55.2058 85.5429 55.2157C85.5178 55.2257 85.4901 55.2267 85.4643 55.2188C85.4386 55.2109 85.4164 55.1945 85.4012 55.1723C85.3861 55.1502 85.3789 55.1235 85.3808 55.0967C85.3808 55.0229 85.5125 53.2917 83.9901 53.1215C83.9705 53.1191 83.9519 53.112 83.9356 53.1009C83.9194 53.0897 83.9062 53.0747 83.897 53.0573C83.8882 53.0404 83.8837 53.0217 83.8837 53.0027C83.8837 52.9837 83.8882 52.965 83.897 52.9481C83.897 52.9481 84.5714 51.6859 84.3113 51.066C84.2812 50.9932 84.2345 50.9285 84.1748 50.8772C84.1151 50.8259 84.0441 50.7893 83.9676 50.7705C83.9524 50.7665 83.9382 50.7594 83.9258 50.7497C83.9134 50.74 83.9031 50.7278 83.8956 50.714C83.8881 50.7001 83.8835 50.6849 83.8821 50.6692C83.8806 50.6536 83.8824 50.6378 83.8873 50.6228C83.897 50.593 83.9177 50.5681 83.9452 50.5531C83.9727 50.5382 84.0048 50.5344 84.0351 50.5425C84.1457 50.571 84.2481 50.625 84.334 50.7003C84.42 50.7757 84.487 50.8701 84.5297 50.9761C84.777 51.5638 84.3595 52.537 84.1796 52.9031C85.3615 53.1312 85.5799 54.2456 85.612 54.7981C85.7176 54.7231 85.8381 54.6716 85.9653 54.6471C86.1584 54.6284 86.3531 54.6537 86.535 54.721C86.7169 54.7883 86.8812 54.8959 87.0156 55.0357C87.3347 55.3172 87.5789 55.6734 87.7264 56.0726C87.8738 56.4717 87.9198 56.9012 87.8603 57.3225C88.3806 57.3899 90.2177 57.7529 90.2145 59.6285C90.2129 59.6584 90.2001 59.6865 90.1786 59.7073C90.1572 59.7282 90.1287 59.7402 90.0988 59.7409Z" fill="#FAFAFA"/>
<path d="M90.0984 56.5356C90.0684 56.5357 90.0396 56.5245 90.0176 56.5042C89.9955 56.484 89.9819 56.4562 89.9795 56.4264C89.9281 55.7455 89.5331 54.8655 89.0353 54.6471C88.9366 54.603 88.8273 54.5887 88.7206 54.6058C88.6139 54.6229 88.5146 54.6707 88.4347 54.7434C88.415 54.756 88.3922 54.7627 88.3688 54.7627C88.3455 54.7627 88.3226 54.756 88.303 54.7434C88.2826 54.7322 88.266 54.7153 88.2552 54.6948C88.2443 54.6742 88.2397 54.6509 88.242 54.6278C88.242 54.6278 88.348 53.4234 87.8052 52.9256C87.6874 52.8273 87.5479 52.7585 87.3981 52.7249C87.2484 52.6914 87.0929 52.6941 86.9444 52.7329C86.924 52.7372 86.9027 52.7359 86.8829 52.7292C86.8631 52.7224 86.8455 52.7103 86.832 52.6943C86.8183 52.6782 86.809 52.6587 86.805 52.6379C86.8011 52.6171 86.8026 52.5956 86.8095 52.5755C86.9187 52.2768 87.1307 51.4385 86.8449 51.1399C86.71 51.0017 86.4627 50.9889 86.1062 51.1045C86.0818 51.1126 86.0555 51.1125 86.0312 51.1044C86.0069 51.0963 85.9859 51.0806 85.9713 51.0596C85.9566 51.0389 85.9487 51.0142 85.9487 50.9889C85.9487 50.9636 85.9566 50.9389 85.9713 50.9182C86.1704 50.6677 86.6618 49.9355 86.5397 49.5854C86.5196 49.537 86.487 49.4949 86.4452 49.4633C86.4035 49.4317 86.3541 49.4117 86.3021 49.4055C86.2869 49.4018 86.2726 49.395 86.26 49.3857C86.2474 49.3764 86.2367 49.3647 86.2287 49.3513C86.2206 49.3379 86.2153 49.323 86.213 49.3075C86.2107 49.292 86.2115 49.2762 86.2154 49.261C86.2183 49.2457 86.2244 49.2311 86.2333 49.2183C86.2422 49.2055 86.2536 49.1947 86.2669 49.1865C86.2802 49.1784 86.2951 49.1731 86.3105 49.171C86.326 49.1688 86.3417 49.17 86.3567 49.1743C86.4468 49.1874 86.532 49.224 86.6035 49.2803C86.6751 49.3367 86.7306 49.4109 86.7646 49.4954C86.8962 49.8776 86.5751 50.459 86.3502 50.7801C86.4661 50.7526 86.5868 50.7537 86.7021 50.7834C86.8174 50.813 86.9237 50.8703 87.0119 50.9504C87.3652 51.3165 87.1949 52.0905 87.089 52.4535C87.2456 52.4347 87.4044 52.4494 87.555 52.4964C87.7055 52.5435 87.8444 52.6219 87.9625 52.7265C88.4411 53.1633 88.4925 54.0111 88.4861 54.3998C88.5865 54.3525 88.6962 54.328 88.8072 54.328C88.9183 54.328 89.0279 54.3525 89.1284 54.3998C89.7354 54.6663 90.1562 55.6138 90.2172 56.3814C90.2185 56.3969 90.2167 56.4124 90.2119 56.4272C90.2071 56.4419 90.1993 56.4555 90.1891 56.4672C90.1789 56.4789 90.1665 56.4884 90.1526 56.4952C90.1386 56.502 90.1235 56.5059 90.108 56.5067L90.0984 56.5356Z" fill="#FAFAFA"/>
<path d="M97.0171 41.9221C97.0018 41.7516 96.9414 41.5882 96.8421 41.4488C96.7427 41.3093 96.608 41.1989 96.4518 41.1288L77.3066 30.074C76.8809 29.8587 76.4106 29.7465 75.9336 29.7465C75.4566 29.7465 74.9862 29.8587 74.5606 30.074L45.1153 47.077C44.9591 47.1471 44.8244 47.2575 44.725 47.3969C44.6257 47.5364 44.5653 47.6997 44.55 47.8703V49.3573C44.5653 49.5278 44.6257 49.6912 44.725 49.8306C44.8244 49.9701 44.9591 50.0805 45.1153 50.1506L64.2605 61.2022C64.6857 61.4191 65.1562 61.5321 65.6335 61.5321C66.1108 61.5321 66.5813 61.4191 67.0065 61.2022L96.4518 44.2025C96.608 44.1324 96.7427 44.0219 96.8421 43.8825C96.9414 43.7431 97.0018 43.5797 97.0171 43.4092V41.9221Z" fill="#37474F"/>
<path d="M64.2603 59.7152L45.1151 48.6636C44.3571 48.2236 44.3571 47.5138 45.1151 47.077L74.5604 30.074C74.986 29.8587 75.4563 29.7465 75.9334 29.7465C76.4104 29.7465 76.8807 29.8587 77.3064 30.074L96.4516 41.1288C97.2128 41.5688 97.2128 42.2754 96.4516 42.7154L67.0063 59.7152C66.5811 59.932 66.1106 60.0451 65.6333 60.0451C65.156 60.0451 64.6855 59.932 64.2603 59.7152Z" fill="#455A64"/>
<path opacity="0.1" d="M92.6746 46.38L83.6624 57.5344L68.2107 66.4566L68.2075 60.5085L92.6746 46.38Z" fill="black"/>
<path opacity="0.1" d="M91.3864 63.4792L83.6621 73.8885L68.2104 82.8139V76.8626L91.3864 63.4792Z" fill="black"/>
<path opacity="0.1" d="M91.3864 79.8367L83.6621 90.2459L68.2104 99.1714V93.22L91.3864 79.8367Z" fill="black"/>
<path d="M55.9422 112.324L32.2524 126.002L5.57568 110.564L29.2655 96.8879L55.9422 112.324Z" fill="#219653"/>
<path opacity="0.5" d="M55.9422 112.324L32.2524 126.002L5.57568 110.564L29.2655 96.8879L55.9422 112.324Z" fill="black"/>
<path d="M29.2655 78.3466V96.8879L5.57568 110.564V92.0254L29.2655 78.3466Z" fill="#219653"/>
<path opacity="0.23" d="M29.2655 78.3466V96.8879L5.57568 110.564V92.0254L29.2655 78.3466Z" fill="black"/>
<path d="M32.2524 107.461V126.002L5.57568 110.564V92.0254L32.2524 107.461Z" fill="#219653"/>
<path opacity="0.38" d="M32.2524 107.461V126.002L5.57568 110.564V92.0254L32.2524 107.461Z" fill="black"/>
<path d="M55.9421 93.7822V112.324L29.2654 96.8879V78.3466L55.9421 93.7822Z" fill="#219653"/>
<path opacity="0.4" d="M55.9421 93.7822V112.324L29.2654 96.8879V78.3466L55.9421 93.7822Z" fill="black"/>
<path d="M55.9422 112.324V93.7822L32.2524 107.461V126.002L55.9422 112.324Z" fill="#219653"/>
<path opacity="0.23" d="M55.9422 112.324V93.7822L32.2524 107.461V126.002L55.9422 112.324Z" fill="black"/>
<path d="M29.2654 78.3465L29.2975 68.0818L55.91 83.5367L55.9421 93.7821L29.2654 78.3465Z" fill="#219653"/>
<path opacity="0.2" d="M29.2654 78.3465L29.2975 68.0818L55.91 83.5367L55.9421 93.7821L29.2654 78.3465Z" fill="black"/>
<path d="M32.2524 107.461L34.475 98.4809L57.9496 84.9274L55.9422 93.7821L32.2524 107.461Z" fill="#219653"/>
<path opacity="0.3" d="M32.2524 107.461L34.475 98.4809L57.9496 84.9274L55.9422 93.7821L32.2524 107.461Z" fill="black"/>
<path d="M5.5756 92.0253L2.74927 82.7112L26.4391 69.0356L29.2654 78.3465L5.5756 92.0253Z" fill="#219653"/>
<path opacity="0.1" d="M5.5756 92.0253L2.74927 82.7112L26.4391 69.0356L29.2654 78.3465L5.5756 92.0253Z" fill="black"/>
<path d="M5.57558 92.0253L0 84.3268L26.6799 99.7624L32.2523 107.461L5.57558 92.0253Z" fill="#219653"/>
<path opacity="0.45" d="M5.57558 92.0253L0 84.3268L26.6799 99.7624L32.2523 107.461L5.57558 92.0253Z" fill="black"/>
<g opacity="0.7">
<path opacity="0.7" d="M39.2283 120.488C39.1897 120.488 39.1526 120.473 39.125 120.446C39.0973 120.419 39.0814 120.382 39.0806 120.343V117.08C39.0814 117.041 39.0972 117.004 39.1247 116.977C39.1523 116.949 39.1894 116.933 39.2283 116.932C39.2669 116.933 39.3037 116.949 39.3307 116.977C39.3577 117.005 39.3728 117.042 39.3728 117.08V120.343C39.3728 120.382 39.3576 120.418 39.3305 120.446C39.3034 120.473 39.2666 120.488 39.2283 120.488Z" fill="white"/>
<path opacity="0.7" d="M38.8013 118.211C38.7821 118.214 38.7626 118.214 38.7435 118.211C38.7084 118.195 38.6809 118.166 38.6666 118.13C38.6522 118.094 38.6522 118.054 38.6664 118.018L39.1867 116.82L39.7648 117.488C39.7855 117.518 39.7944 117.554 39.7899 117.591C39.7854 117.627 39.7677 117.66 39.7402 117.684C39.7128 117.708 39.6775 117.72 39.6412 117.72C39.6048 117.719 39.5699 117.705 39.5432 117.681L39.2702 117.36L38.949 118.13C38.9351 118.157 38.9137 118.179 38.8874 118.193C38.8611 118.207 38.8311 118.214 38.8013 118.211Z" fill="white"/>
<path opacity="0.7" d="M40.5742 119.72C40.5356 119.719 40.4988 119.704 40.4718 119.676C40.4448 119.648 40.4297 119.611 40.4297 119.573V116.313C40.4297 116.274 40.4449 116.238 40.472 116.21C40.4991 116.183 40.5359 116.168 40.5742 116.168C40.6125 116.168 40.6493 116.183 40.6764 116.21C40.7035 116.238 40.7187 116.274 40.7187 116.313V119.569C40.7192 119.589 40.7158 119.608 40.7087 119.626C40.7017 119.644 40.6912 119.661 40.6778 119.675C40.6643 119.689 40.6483 119.7 40.6305 119.708C40.6127 119.716 40.5936 119.72 40.5742 119.72Z" fill="white"/>
<path opacity="0.7" d="M40.147 117.443C40.1278 117.446 40.1083 117.446 40.0892 117.443C40.0715 117.435 40.0556 117.424 40.0423 117.41C40.029 117.397 40.0187 117.38 40.0118 117.362C40.0049 117.344 40.0017 117.325 40.0023 117.306C40.0029 117.287 40.0073 117.268 40.0153 117.25L40.5324 116.036L41.1105 116.701C41.1372 116.729 41.1521 116.766 41.1521 116.804C41.1521 116.842 41.1372 116.879 41.1105 116.907C41.0971 116.92 41.0811 116.931 41.0634 116.939C41.0458 116.946 41.0268 116.95 41.0077 116.95C40.9886 116.95 40.9697 116.946 40.952 116.939C40.9344 116.931 40.9184 116.92 40.905 116.907L40.632 116.586L40.3108 117.356C40.2975 117.387 40.274 117.413 40.2442 117.429C40.2144 117.444 40.1801 117.45 40.147 117.443Z" fill="white"/>
</g>
<g opacity="0.7">
<path opacity="0.7" d="M35.3451 122.701C35.2902 122.701 35.2361 122.688 35.1877 122.662C35.1297 122.625 35.0826 122.573 35.0516 122.511C35.0205 122.45 35.0065 122.381 35.0111 122.312V121.911C35.0119 121.872 35.0279 121.835 35.0555 121.808C35.0831 121.781 35.1202 121.766 35.1588 121.766C35.1972 121.766 35.2339 121.781 35.261 121.808C35.2881 121.835 35.3034 121.872 35.3034 121.911V122.312C35.3034 122.37 35.3034 122.402 35.3323 122.408C35.3612 122.415 35.3772 122.408 35.4254 122.383C35.5158 122.299 35.587 122.197 35.6342 122.083C35.6813 121.97 35.7032 121.847 35.6984 121.724V120.054C35.6984 120.016 35.7136 119.979 35.7407 119.952C35.7679 119.925 35.8046 119.91 35.8429 119.91C35.8813 119.91 35.918 119.925 35.9451 119.952C35.9722 119.979 35.9875 120.016 35.9875 120.054V121.724C35.9946 121.898 35.9609 122.07 35.8889 122.228C35.8169 122.386 35.7087 122.525 35.5732 122.633C35.5045 122.676 35.4258 122.699 35.3451 122.701Z" fill="white"/>
<path opacity="0.7" d="M33.8135 121.355V121.104C33.8517 120.461 34.0397 119.836 34.3626 119.278C34.6854 118.72 35.1342 118.246 35.6731 117.893C36.1998 117.591 36.7008 117.546 37.0862 117.771C37.2918 117.912 37.4557 118.105 37.5608 118.331C37.6659 118.557 37.7083 118.807 37.6836 119.055V119.139L33.8135 121.355ZM36.5467 117.906C36.2895 117.917 36.0396 117.995 35.8208 118.13C35.3591 118.434 34.9681 118.834 34.6744 119.302C34.3807 119.77 34.1911 120.296 34.1186 120.844L37.3849 118.956C37.3989 118.77 37.3645 118.583 37.2852 118.414C37.2058 118.246 37.0842 118.1 36.9321 117.992C36.8134 117.93 36.6805 117.9 36.5467 117.906Z" fill="white"/>
</g>
<path opacity="0.7" d="M0 84.3268L26.6799 99.7624L32.2523 107.461L26.3845 100.035L0 84.3268Z" fill="white"/>
<path opacity="0.7" d="M55.9422 93.7822L32.2524 107.461V126.002L32.6957 107.834L55.9422 93.7822Z" fill="white"/>
<path d="M21.1783 86.3662C23.6224 86.0129 25.8546 84.4391 27.2806 82.4607C27.9456 81.5363 28.4355 80.4978 28.7259 79.3967C29.0343 78.367 29.085 77.2773 28.8736 76.2235C28.4336 74.4602 26.802 73.4164 25.0773 73.198C24.2022 73.0829 23.3122 73.1697 22.4758 73.4517C21.6085 73.7494 20.8561 74.3109 20.3239 75.0576C19.9903 75.4554 19.7804 75.9422 19.7201 76.4579C19.715 76.6599 19.7862 76.8564 19.9196 77.0082C20.0529 77.16 20.2386 77.256 20.4396 77.2769C20.9567 77.3205 21.4736 77.1893 21.9073 76.9044C22.4363 76.6077 22.9021 76.2106 23.2788 75.7353C24.0866 74.7383 24.6911 73.5926 25.0581 72.363C25.3155 71.3079 25.3155 70.2063 25.0581 69.1512C24.8625 68.0475 24.358 67.0218 23.6031 66.1932C22.7378 65.4062 21.6396 64.9226 20.4749 64.8154C19.3157 64.6561 18.1354 64.766 17.0255 65.1365C16.538 65.2843 16.0864 65.5315 15.699 65.8624C15.4228 66.1193 15.1081 66.5433 15.2205 66.9608C15.3329 67.3783 15.9431 67.5646 16.3574 67.51C16.9706 67.3951 17.5323 67.0907 17.9633 66.6396C18.4437 66.1668 18.8517 65.6257 19.1741 65.0338C19.4137 64.6084 19.5388 64.1281 19.5371 63.6399C19.4953 61.6036 17.2439 60.2868 15.4806 59.9142C15.0047 59.8148 14.5171 59.7824 14.0321 59.8179C13.8683 59.8179 13.9679 60.0877 14.0996 60.078C15.0484 60.0349 15.9914 60.2479 16.8296 60.6947C17.6565 61.0748 18.351 61.6933 18.8241 62.4708C19.0349 62.8541 19.1389 63.287 19.1254 63.7243C19.1118 64.1615 18.9811 64.5871 18.747 64.9567C18.4325 65.5044 18.0409 66.0041 17.5843 66.4405C17.2021 66.7874 16.6208 67.1888 16.0844 67.1503C15.9959 67.1501 15.9092 67.125 15.8342 67.0779C15.7593 67.0307 15.6991 66.9634 15.6605 66.8837C15.6443 66.7783 15.653 66.6705 15.6859 66.569C15.7188 66.4675 15.775 66.3751 15.85 66.2992C16.1336 65.9938 16.4844 65.7585 16.8745 65.6119C17.8381 65.2113 18.8814 65.0398 19.9225 65.1108C20.9954 65.1303 22.0387 65.4654 22.9222 66.0744C23.6919 66.7134 24.2385 67.5806 24.4832 68.5506C24.793 69.536 24.8894 70.5762 24.7658 71.6018C24.575 72.6338 24.1786 73.6168 23.5999 74.4923C23.0058 75.4751 22.2606 76.4194 21.1429 76.8048C20.8667 76.9044 20.2886 77.0489 20.1794 76.6474C20.0702 76.2459 20.385 75.7513 20.5873 75.4398C21.0347 74.7356 21.6871 74.1853 22.4565 73.8628C23.1991 73.5652 24.0006 73.4443 24.7979 73.5095C26.3106 73.622 27.8458 74.412 28.3726 75.9151C28.6368 76.8134 28.6655 77.7646 28.4561 78.6772C28.2671 79.6776 27.9075 80.638 27.393 81.5164C26.2862 83.3829 24.61 84.8452 22.6107 85.6885C22.1354 85.894 21.6472 86.0675 21.1494 86.228C21.098 86.2473 21.1205 86.3758 21.1783 86.3662Z" fill="#E0E0E0"/>
<path d="M10.968 58.4818C9.68334 58.3887 7.91367 59.4004 8.54318 60.1391C9.17268 60.8778 10.8428 59.683 10.8428 59.683C10.8428 59.683 10.6854 61.1765 11.2314 61.3467C11.7774 61.5169 12.5161 60.0909 11.9701 59.1788C12.2334 59.2826 12.5187 59.3182 12.7994 59.2823C13.0802 59.2463 13.3473 59.14 13.576 58.9732C14.3532 58.4016 13.531 57.862 12.4358 57.9583C12.4358 57.9583 13.2195 55.3889 11.6361 55.8803C10.8428 56.1212 10.5634 57.0494 10.968 58.4818Z" fill="#219653"/>
<path opacity="0.65" d="M10.968 58.4818C9.68334 58.3887 7.91367 59.4004 8.54318 60.1391C9.17268 60.8778 10.8428 59.683 10.8428 59.683C10.8428 59.683 10.6854 61.1765 11.2314 61.3467C11.7774 61.5169 12.5161 60.0909 11.9701 59.1788C12.2334 59.2826 12.5187 59.3182 12.7994 59.2823C13.0802 59.2463 13.3473 59.14 13.576 58.9732C14.3532 58.4016 13.531 57.862 12.4358 57.9583C12.4358 57.9583 13.2195 55.3889 11.6361 55.8803C10.8428 56.1212 10.5634 57.0494 10.968 58.4818Z" fill="white"/>
<path d="M12.1626 59.0278C12.0915 58.9582 12.0165 58.8928 11.9378 58.8319C11.8254 58.7452 11.7066 58.6617 11.5941 58.5782C11.4847 58.4986 11.3699 58.4267 11.2505 58.363C11.1818 58.3248 11.111 58.2905 11.0385 58.2602C10.9384 58.2132 10.8271 58.1954 10.7173 58.2088C10.6886 58.2096 10.6606 58.2182 10.6362 58.2335C10.6119 58.2488 10.5921 58.2705 10.579 58.2961C10.5658 58.3217 10.5598 58.3503 10.5616 58.3791C10.5633 58.4078 10.5727 58.4355 10.5889 58.4593C10.6772 58.555 10.7874 58.6277 10.91 58.6713L11.0835 58.7644C11.2023 58.8351 11.3083 58.9154 11.4046 58.9957C11.501 59.076 11.6295 59.1531 11.7258 59.2334C11.8915 59.3677 12.0767 59.476 12.275 59.5545C12.2839 59.5593 12.2938 59.5618 12.3039 59.5618C12.314 59.5618 12.324 59.5593 12.3328 59.5545C12.4966 59.4261 12.2558 59.121 12.1626 59.0278Z" fill="#455A64"/>
<path d="M114.557 23.1495C113.153 25.038 111.274 35.4215 110.565 38.7521C107.15 38.6526 102.583 38.492 100.855 38.3121C98.9284 38.1098 94.8141 37.7147 92.7939 37.9909C87.7804 38.6333 87.9763 41.9285 88.0984 42.7893C88.2301 43.7721 88.9334 44.2217 91.6313 43.6083C92.235 43.4756 92.8504 43.4035 93.4684 43.3931C93.7286 43.3931 94.2778 43.2614 94.4833 43.483C94.8045 43.8042 93.8763 44.3438 93.6451 44.4915C93.2886 44.7228 92.916 45.015 92.8421 45.4325C92.8209 45.5089 92.8221 45.5897 92.8454 45.6654C92.8688 45.7411 92.9133 45.8085 92.9738 45.8597C93.1045 45.9131 93.251 45.9131 93.3817 45.8597C94.6131 45.5675 95.8009 45.115 96.9146 44.514C97.3345 44.2608 97.7763 44.0458 98.2346 43.8716C98.9316 43.6468 99.651 43.7785 100.351 43.7785C101.857 43.7785 109.819 44.5686 113.359 44.9283C115.809 45.1756 116.069 42.7572 116.914 40.3066C117.952 37.2683 120.409 21.2899 120.409 21.2899C117.929 20.9302 116.227 20.9077 114.557 23.1495Z" fill="#FFA8A7"/>
<path d="M120.447 21.0394C119.262 20.821 116.593 20.4902 115.141 22.1121C113.689 23.734 113.346 25.4362 112.706 27.8932C112.067 30.3502 110.934 34.7503 110.934 34.7503C110.934 34.7503 112.806 37.4385 118.667 36.6773L120.447 21.0394Z" fill="#37474F"/>
<path d="M135.166 105.964L131.046 105.967L129.861 97.0227L135.06 96.8171L135.166 105.964Z" fill="#FFA8A7"/>
<path d="M121.485 101.497C120.785 102.714 118.533 102.614 116.667 102.184L116.452 93.3903L121.96 93.1719L121.485 101.497Z" fill="#FFA8A7"/>
<path d="M134.887 49.444C135.035 53.2499 134.531 75.7546 134.531 75.7546C134.669 76.8466 135.799 78.7511 136.034 82.6919C136.377 88.4153 135.212 100.62 135.212 100.62C135.212 100.62 132.851 101.853 130.307 100.909C130.307 100.909 127.719 83.2444 126.774 77.5981C125.959 72.6841 124.912 59.5031 124.912 59.5031L122.879 76.3969C123.251 78.3966 123.405 80.4309 123.338 82.4639C123.254 85.0911 121.758 97.8481 121.758 97.8481C120.05 98.4067 118.216 98.4503 116.484 97.9734C116.484 97.9734 115.257 78.1762 115.116 75.777C114.955 73.0406 115.064 48.8851 115.064 48.8851L134.887 49.444Z" fill="#219653"/>
<path opacity="0.2" d="M124.918 59.5096C124.918 59.5096 121.318 58.4883 118.864 56.2979C118.864 56.2979 120.014 58.2602 123.27 60.001L123.084 74.7461L124.918 59.5096Z" fill="black"/>
<path d="M126.35 113.425C126.219 113.56 126.296 114.45 126.456 114.681C126.617 114.912 127.6 115.696 129.305 115.754C130.934 115.805 132.372 115.529 133.301 114.886C134.229 114.244 134.666 113.56 134.72 112.638C134.775 111.716 134.637 110.82 135.041 110.091C135.424 109.42 136.043 108.652 136.169 108.29C136.448 107.503 136.108 106.407 136.108 106.407L126.35 113.425Z" fill="#263238"/>
<path d="M130.461 105.181C130.463 105.532 130.413 105.881 130.313 106.218C129.965 107.313 129.441 108.345 128.762 109.272C128.293 109.873 127.702 110.377 127.204 110.959C126.672 111.51 126.345 112.228 126.279 112.992C126.26 114.276 127.66 114.646 128.73 114.793C129.889 114.946 131.068 114.837 132.179 114.472C132.765 114.296 133.286 113.954 133.682 113.488C134.077 113.022 134.329 112.451 134.408 111.845C134.453 111.488 134.408 111.129 134.447 110.772C134.556 109.953 134.866 109.174 135.349 108.505C135.629 108.117 135.868 107.702 136.062 107.265C136.361 106.462 136.062 105.585 135.818 104.811C135.609 104.14 135.372 103.379 135.137 103.453C135.137 103.809 135.137 103.841 134.909 104.095C134.588 104.416 134.604 104.863 134.267 105.142C134.364 104.846 134.431 104.54 134.466 104.23C134.482 104.103 134.451 103.976 134.379 103.87C134.263 103.776 134.127 103.71 133.981 103.678C133.473 103.527 132.951 103.429 132.423 103.385C131.921 103.319 131.411 103.335 130.914 103.433C130.767 103.467 130.636 103.55 130.541 103.668C130.459 103.799 130.417 103.953 130.422 104.108C130.422 104.317 130.458 104.84 130.461 105.181Z" fill="#455A64"/>
<path d="M129.241 108.563C129.703 108.19 130.763 108.142 131.348 108.184C131.94 108.21 132.516 108.387 133.021 108.697C133.095 108.747 133.185 108.769 133.274 108.758C133.363 108.747 133.445 108.705 133.506 108.64C133.541 108.602 133.568 108.557 133.585 108.509C133.601 108.46 133.607 108.408 133.602 108.357C133.596 108.305 133.58 108.256 133.553 108.211C133.527 108.167 133.491 108.129 133.448 108.1C132.89 107.722 132.237 107.508 131.563 107.483C130.13 107.442 129.723 107.702 129.723 107.702C129.723 107.702 129.083 108.145 129.241 108.563Z" fill="#F5F5F5"/>
<path d="M128.2 109.912C128.782 109.536 129.954 109.539 130.535 109.59C131.118 109.627 131.68 109.817 132.167 110.14C132.241 110.189 132.33 110.21 132.418 110.2C132.507 110.189 132.588 110.147 132.648 110.082C132.685 110.045 132.712 110 132.729 109.951C132.746 109.903 132.753 109.851 132.747 109.799C132.742 109.748 132.726 109.698 132.699 109.654C132.673 109.609 132.637 109.571 132.594 109.542C132.026 109.144 131.359 108.913 130.667 108.874C129.231 108.829 128.871 109.134 128.871 109.134C128.708 109.205 128.563 109.312 128.447 109.446C128.331 109.581 128.246 109.74 128.2 109.912Z" fill="#F5F5F5"/>
<path d="M132.077 106.096C131.471 106.013 130.853 106.088 130.285 106.314C130.041 106.465 129.89 106.87 130.053 106.957C130.551 106.733 131.096 106.636 131.64 106.674C132.177 106.706 132.705 106.829 133.201 107.04C133.326 107.088 133.474 107.159 133.602 107.223C133.643 107.244 133.688 107.257 133.734 107.26C133.781 107.263 133.827 107.257 133.87 107.241C133.914 107.226 133.954 107.202 133.988 107.171C134.022 107.139 134.049 107.102 134.068 107.059C134.098 106.986 134.101 106.905 134.075 106.83C134.049 106.755 133.996 106.693 133.927 106.655C133.357 106.338 132.726 106.147 132.077 106.096Z" fill="#F5F5F5"/>
<path d="M107.25 106.982C107.104 107.35 107.104 107.759 107.25 108.126C107.391 108.469 109.094 109.536 111.457 109.491C113.215 109.448 114.93 108.936 116.423 108.007C117.351 107.455 118.292 107.387 119.461 107.365C120.63 107.342 122.191 106.844 122.474 106.311C122.756 105.778 122.506 104.824 122.506 104.824L107.25 106.982Z" fill="#263238"/>
<path d="M117.11 100.077L116.927 100.029C116.823 99.9975 116.713 99.9877 116.606 100C116.49 100.028 116.386 100.091 116.307 100.18C116.064 100.465 115.849 100.772 115.665 101.099C115.135 101.879 114.059 102.499 112.902 103.054C112.112 103.43 111.345 103.716 110.532 104.034C109.72 104.352 108.605 104.532 107.963 104.93C106.999 105.511 106.816 107.069 107.838 107.737C108.724 108.315 111.088 109.006 113.619 108.415C115.003 108.094 116.59 106.706 118.388 106.652C119.535 106.616 121.706 106.398 122.48 105.566C122.772 105.197 122.48 103.96 122.22 102.894C121.95 101.731 122.072 100.003 121.552 100.003L121.52 100.585C121.471 100.758 121.063 100.928 120.935 101.063L120.473 101.551C120.283 101.777 120.052 101.965 119.792 102.104C119.332 102.309 118.796 102.187 118.305 102.059C118.285 102.059 118.552 101.166 118.581 101.079C118.61 101.011 118.619 100.937 118.607 100.864C118.582 100.793 118.533 100.733 118.468 100.694C118.063 100.397 117.6 100.187 117.11 100.077Z" fill="#455A64"/>
<path d="M114.001 102.483C114.091 102.33 114.217 102.202 114.369 102.11C114.521 102.019 114.694 101.967 114.871 101.959C115.395 101.888 116.291 102.312 116.84 102.81C116.892 102.857 116.931 102.916 116.955 102.981C116.979 103.046 116.987 103.117 116.977 103.186C116.968 103.255 116.941 103.321 116.901 103.377C116.86 103.434 116.806 103.479 116.744 103.51C116.665 103.549 116.577 103.563 116.49 103.549C116.404 103.535 116.324 103.495 116.262 103.433C115.66 102.834 114.849 102.493 114.001 102.483Z" fill="#F5F5F5"/>
<path d="M112.35 103.308C112.471 103.154 112.626 103.032 112.804 102.951C112.982 102.869 113.177 102.832 113.372 102.842C113.372 102.842 114.727 102.945 115.527 103.767C115.576 103.812 115.614 103.869 115.637 103.932C115.66 103.994 115.667 104.062 115.658 104.128C115.649 104.194 115.625 104.258 115.586 104.312C115.547 104.367 115.496 104.411 115.437 104.442C115.361 104.479 115.276 104.492 115.192 104.478C115.109 104.465 115.032 104.427 114.971 104.368C114.642 104.006 114.235 103.722 113.782 103.539C113.328 103.355 112.839 103.277 112.35 103.308Z" fill="#F5F5F5"/>
<path d="M110.536 104.034C110.672 103.893 110.837 103.783 111.02 103.711C111.203 103.64 111.399 103.608 111.596 103.62C112.363 103.704 113.085 104.029 113.657 104.548C113.707 104.593 113.745 104.65 113.767 104.713C113.79 104.776 113.798 104.844 113.789 104.91C113.78 104.977 113.755 105.04 113.717 105.095C113.678 105.15 113.627 105.195 113.568 105.226C113.492 105.263 113.406 105.276 113.322 105.262C113.239 105.248 113.162 105.208 113.102 105.148C112.79 104.776 112.396 104.481 111.95 104.288C111.505 104.095 111.021 104.008 110.536 104.034Z" fill="#F5F5F5"/>
<path d="M127.313 21.11C128.829 21.2834 130.622 21.3766 132.07 21.5661C133.936 21.8102 135.391 23.7404 135.847 26.7273C136.348 30.0162 134.241 39.4458 134.241 39.4458L134.912 50.5649C132.179 52.5786 120.54 53.6353 114.74 49.4472C114.74 49.4472 114.874 30.5236 115.327 27.6073C115.95 23.6087 116.933 21.1261 121.43 20.8402L127.313 21.11Z" fill="#455A64"/>
<path d="M137.678 45.198C137.187 46.0203 136.692 46.8425 136.185 47.655C135.998 47.9569 135.809 48.2556 135.613 48.5511C135.507 48.6957 135.383 48.8263 135.243 48.9397C134.999 49.1067 134.492 49.0007 134.196 49.0104C132.745 49.0596 131.297 49.1667 129.854 49.3316C129.733 49.3278 129.613 49.3506 129.502 49.3983C129.391 49.446 129.292 49.5175 129.212 49.6078C129.153 49.7321 129.141 49.8739 129.179 50.0064C129.216 50.1388 129.301 50.2529 129.417 50.3272C129.654 50.4691 129.922 50.5487 130.198 50.5584L131.45 50.7062C131.629 50.7122 131.803 50.7678 131.951 50.8668C132.408 51.2361 131.537 51.6793 131.277 51.8592C130.754 52.2227 130.195 52.5326 129.61 52.7842C126.999 53.8826 126.681 54.6791 127.163 55.5848C127.58 56.3717 129.385 59.2334 133.972 56.77C135.818 55.7775 138.629 52.6429 139.91 51.1269C141.754 48.9397 144.872 44.0611 144.872 44.0611C146.645 41.6266 146.873 40.6277 146.915 39.616C146.957 38.6043 141.455 30.8223 139.586 28.0891C137.717 25.3559 136.827 22.0318 132.07 21.5757C132.07 21.5757 130.259 27.3183 133.259 31.0343L140.186 40.6984C140.186 40.6984 138.352 44.0707 137.678 45.198Z" fill="#FFA8A7"/>
<path d="M142.704 31.7955C141.815 30.5108 140.886 29.1875 139.99 27.8772C136.217 22.369 136.535 21.3605 131.094 21.2834C130.612 22.0221 130.326 25.2018 131.052 28.3942C131.659 31.076 133.943 32.9678 133.943 32.9678L136.666 36.6581C136.666 36.6581 138.333 36.6067 140.331 35.1421C141.485 34.3339 142.323 33.1515 142.704 31.7955Z" fill="#37474F"/>
<path d="M130.901 6.63469C130.628 6.22714 130.249 5.90139 129.805 5.69213C129.361 5.48287 128.868 5.39792 128.38 5.44634L128.097 12.342L127.635 14.8889L127.715 17.7248C127.984 17.6869 128.238 17.5815 128.455 17.4187C128.672 17.2558 128.844 17.0407 128.955 16.7934C129.379 15.9776 130.561 12.0336 130.561 12.0336C131.621 8.79298 131.396 7.32843 130.901 6.63469Z" fill="#263238"/>
<path d="M127.776 12.3741C127.895 11.955 128.125 11.5757 128.441 11.2757C128.836 10.8518 130.41 10.3925 131.126 11.7286C131.842 13.0646 130.635 14.8279 129.703 15.3675C128.512 16.0612 127.811 15.1169 127.811 15.1169L127.84 21.4666C127.285 22.7513 124.776 23.8946 123.283 23.7148C122.095 23.5638 120.999 22.6292 122.062 21.2674L121.976 19.456C121.976 19.456 120.386 19.7772 119.599 19.6969C118.292 19.562 117.421 18.576 116.959 17.1885C116.214 14.9596 115.883 13.1481 116.198 8.6774C116.545 3.7795 122.207 3.44869 125.364 5.22157C128.521 6.99445 127.776 12.3741 127.776 12.3741Z" fill="#FFA8A7"/>
<path d="M114.396 3.58996C114.252 2.52045 114.621 1.37386 115.742 0.994878C116.153 0.822806 116.605 0.770401 117.045 0.8437C117.485 0.916999 117.895 1.11302 118.228 1.40919C118.369 1.03188 118.611 0.701234 118.93 0.454418C119.248 0.207603 119.628 0.0543987 120.029 0.0120234C120.429 -0.0303519 120.833 0.0397811 121.196 0.214541C121.559 0.389301 121.866 0.661762 122.082 1.0013C122.38 0.549081 122.84 0.228337 123.367 0.105225C123.692 0.0326427 124.028 0.0259414 124.356 0.0855184C124.683 0.145095 124.996 0.269741 125.275 0.452093C125.731 0.789326 126.267 1.41562 126.132 2.22819C127.035 1.86526 127.976 2.16716 128.647 2.96367C129.046 3.45143 129.272 4.05815 129.289 4.68838C129.312 5.01573 129.265 5.34426 129.151 5.6519C129.023 5.94417 128.759 6.13688 128.682 6.46769C128.57 6.75874 128.512 7.06792 128.512 7.37982C128.586 7.91939 128.705 8.45897 128.775 8.98569C128.851 9.51032 128.895 10.0391 128.907 10.5691C128.89 10.6937 128.847 10.8133 128.78 10.9197C128.713 11.0261 128.624 11.1168 128.518 11.1857C128.219 11.448 127.986 11.7784 127.841 12.1493C127.728 12.3805 127.619 12.9522 127.398 13.1128C126.713 13.5913 126.636 12.0433 126.604 11.7446C126.56 11.059 126.56 10.3714 126.604 9.68585C126.259 9.6814 125.919 9.6048 125.605 9.46098C125.292 9.31717 125.012 9.10932 124.783 8.8508C124.546 8.56028 124.39 8.21243 124.33 7.84231C124.293 7.63025 124.276 7.41521 124.279 7.19996C123.832 7.93866 122.795 8.24057 122.056 8.16349C120.817 8.05107 120.389 7.52114 120.19 7.13252C120.112 7.51558 119.944 7.87448 119.699 8.17954C119.382 8.47713 119.001 8.69704 118.584 8.82189C118.225 8.9177 117.847 8.9139 117.49 8.81092C117.133 8.70794 116.811 8.50965 116.558 8.23736C116.054 8.96 114.775 8.63882 114.493 8.43648C113.85 7.97078 113.642 7.41515 113.571 6.62185C113.5 5.82855 113.821 4.92284 114.701 4.6113C114.543 4.29052 114.44 3.94519 114.396 3.58996Z" fill="#263238"/>
<path d="M121.976 19.4463C121.976 19.4463 124.847 18.7205 125.83 18.1295C126.411 17.7891 126.876 17.2808 127.163 16.6714C127.039 17.2726 126.795 17.8427 126.447 18.3479C125.753 19.3339 122.008 20.2204 122.008 20.2204L121.976 19.4463Z" fill="#F28F8F"/>
<path d="M122.136 12.1621C122.147 12.2838 122.194 12.3996 122.27 12.4951C122.346 12.5906 122.448 12.6617 122.564 12.6994C122.681 12.7372 122.805 12.7399 122.923 12.7074C123.041 12.6748 123.146 12.6084 123.227 12.5164C123.307 12.4243 123.358 12.3107 123.375 12.1896C123.391 12.0686 123.371 11.9454 123.318 11.8355C123.265 11.7255 123.18 11.6336 123.075 11.5712C122.97 11.5088 122.849 11.4787 122.727 11.4845C122.56 11.4976 122.404 11.576 122.293 11.7027C122.183 11.8294 122.127 11.9943 122.136 12.1621Z" fill="#263238"/>
<path d="M121.176 16.8095C121.191 16.9662 121.251 17.1151 121.35 17.2378C121.449 17.3604 121.581 17.4514 121.731 17.4993C121.881 17.5473 122.042 17.5501 122.193 17.5075C122.345 17.4649 122.48 17.3787 122.583 17.2597C122.686 17.1406 122.752 16.9939 122.772 16.8379C122.792 16.6818 122.766 16.5232 122.697 16.3819C122.628 16.2405 122.519 16.1225 122.383 16.0427C122.248 15.9628 122.091 15.9246 121.934 15.9327C121.718 15.95 121.517 16.0516 121.376 16.2157C121.234 16.3798 121.162 16.5931 121.176 16.8095Z" fill="#F28F8F"/>
<path d="M122.654 10.0231L123.977 10.6654C124.059 10.4841 124.069 10.278 124.004 10.0897C123.939 9.90145 123.804 9.74538 123.627 9.65374C123.539 9.61177 123.444 9.58805 123.346 9.584C123.249 9.57995 123.152 9.59566 123.061 9.63019C122.97 9.66472 122.887 9.71734 122.817 9.78487C122.747 9.8524 122.691 9.93345 122.654 10.0231Z" fill="#263238"/>
<path d="M116.898 10.5788L118.025 9.61527C117.966 9.53841 117.892 9.47438 117.808 9.42711C117.724 9.37984 117.63 9.35034 117.534 9.34041C117.438 9.33049 117.341 9.34035 117.248 9.36939C117.156 9.39843 117.071 9.44604 116.997 9.50929C116.847 9.64091 116.753 9.82521 116.734 10.0242C116.716 10.2232 116.774 10.4217 116.898 10.5788Z" fill="#263238"/>
<path d="M117.235 12.0369C117.243 12.1557 117.286 12.2696 117.358 12.3642C117.43 12.4588 117.529 12.5299 117.642 12.5686C117.754 12.6073 117.876 12.6119 117.991 12.5817C118.106 12.5515 118.21 12.488 118.289 12.399C118.368 12.3101 118.419 12.1997 118.436 12.0818C118.452 11.964 118.434 11.8438 118.382 11.7364C118.331 11.6291 118.249 11.5394 118.146 11.4785C118.044 11.4177 117.926 11.3885 117.807 11.3946C117.647 11.4053 117.497 11.4787 117.39 11.5988C117.283 11.719 117.227 11.8763 117.235 12.0369Z" fill="#263238"/>
<path d="M120.216 11.3239L120.197 15.1233L118.186 14.5452L120.216 11.3239Z" fill="#F28F8F"/>
<path d="M115.17 16.6392C115.189 16.6351 115.206 16.6273 115.222 16.6162C115.237 16.6052 115.25 16.5912 115.26 16.575C115.272 16.5591 115.28 16.5411 115.284 16.522C115.288 16.5029 115.288 16.4832 115.285 16.4639C115.281 16.4447 115.274 16.4264 115.263 16.4102C115.252 16.394 115.238 16.3801 115.222 16.3694L113.474 15.2068C113.458 15.1959 113.44 15.1884 113.421 15.1847C113.402 15.1809 113.382 15.181 113.363 15.1848C113.344 15.1887 113.326 15.1963 113.31 15.2073C113.293 15.2182 113.28 15.2322 113.269 15.2485C113.258 15.2646 113.25 15.2828 113.246 15.302C113.242 15.3212 113.242 15.341 113.246 15.3603C113.249 15.3795 113.257 15.3977 113.268 15.4139C113.28 15.43 113.294 15.4437 113.311 15.4541L115.055 16.6167C115.071 16.6288 115.09 16.637 115.11 16.6409C115.13 16.6448 115.15 16.6442 115.17 16.6392Z" fill="#E0E0E0"/>
<path d="M114.984 17.3908C115.011 17.3841 115.036 17.37 115.056 17.3502C115.076 17.3304 115.09 17.3056 115.096 17.2784C115.105 17.2397 115.098 17.1991 115.077 17.1654C115.056 17.1317 115.023 17.1077 114.984 17.0986L112.941 16.6264C112.922 16.6216 112.903 16.6207 112.883 16.6236C112.864 16.6265 112.845 16.6332 112.829 16.6434C112.812 16.6536 112.797 16.6669 112.786 16.6828C112.774 16.6986 112.766 16.7166 112.761 16.7356C112.753 16.7744 112.76 16.815 112.781 16.8486C112.802 16.8823 112.835 16.9063 112.874 16.9155L114.917 17.3908C114.939 17.394 114.962 17.394 114.984 17.3908Z" fill="#E0E0E0"/>
<path d="M113.085 18.7495H113.105L115.074 18.03C115.111 18.0164 115.141 17.9886 115.157 17.9528C115.174 17.9169 115.175 17.876 115.162 17.8389C115.148 17.8019 115.12 17.7718 115.085 17.7552C115.049 17.7386 115.008 17.737 114.971 17.7506L113.002 18.47C112.983 18.4768 112.967 18.4872 112.952 18.5006C112.938 18.514 112.926 18.5302 112.918 18.5481C112.91 18.5661 112.906 18.5855 112.905 18.6052C112.905 18.6248 112.908 18.6444 112.915 18.6627C112.929 18.695 112.953 18.7214 112.984 18.7373C113.016 18.7532 113.051 18.7575 113.085 18.7495Z" fill="#E0E0E0"/>
<path d="M96.4298 34.1561C96.4704 34.2376 96.534 34.3054 96.6127 34.3511C96.6915 34.3968 96.7819 34.4184 96.8728 34.4133C96.9637 34.4082 97.0511 34.3765 97.1242 34.3222C97.1973 34.268 97.2529 34.1934 97.2841 34.1079L98.7486 30.4947C98.7724 30.4368 98.7842 30.3746 98.7835 30.312C98.7827 30.2494 98.7693 30.1876 98.7441 30.1303C98.7188 30.073 98.6823 30.0214 98.6367 29.9785C98.5911 29.9356 98.5373 29.9024 98.4785 29.8808C98.4197 29.8592 98.3572 29.8496 98.2947 29.8527C98.2321 29.8559 98.1709 29.8715 98.1145 29.8989C98.0582 29.9262 98.008 29.9646 97.9668 30.0118C97.9257 30.059 97.8944 30.114 97.875 30.1735L96.4073 33.7867C96.3856 33.8466 96.3764 33.9102 96.3803 33.9737C96.3841 34.0373 96.401 34.0993 96.4298 34.1561Z" fill="#E0E0E0"/>
<path d="M94.0174 34.1368C94.0642 34.2315 94.1418 34.3075 94.2374 34.3523C94.333 34.3971 94.441 34.4081 94.5437 34.3835C94.6464 34.3588 94.7376 34.3 94.8025 34.2167C94.8674 34.1333 94.902 34.0304 94.9007 33.9248L94.8525 29.4284C94.8428 29.312 94.7897 29.2035 94.7038 29.1244C94.6178 29.0452 94.5052 29.0013 94.3884 29.0013C94.2716 29.0013 94.159 29.0452 94.0731 29.1244C93.9871 29.2035 93.934 29.312 93.9243 29.4284L93.9693 33.9248C93.9684 33.9983 93.9849 34.0709 94.0174 34.1368Z" fill="#E0E0E0"/>
<path d="M89.9293 31.6349L89.9582 31.6895L92.1711 34.9012C92.2396 35.0029 92.3456 35.0734 92.4658 35.0975C92.5861 35.1215 92.711 35.0972 92.8134 35.0297C92.9132 34.9596 92.9821 34.8535 93.0054 34.7337C93.0288 34.614 93.0048 34.4899 92.9387 34.3873L90.7258 31.1756C90.6613 31.076 90.561 31.0049 90.4457 30.9772C90.3303 30.9494 90.2087 30.9671 90.106 31.0265C90.0032 31.0859 89.9273 31.1825 89.8938 31.2963C89.8603 31.4102 89.8719 31.5325 89.9261 31.6381L89.9293 31.6349Z" fill="#E0E0E0"/>
</svg>
