<svg width="122" height="123" viewBox="0 0 122 123" fill="none" xmlns="http://www.w3.org/2000/svg">
<path d="M108.158 77.2696C108.193 75.2926 110.262 70.1222 112.36 67.5879C114.458 65.0537 117.715 63.2358 120.001 64.0604C122.125 64.8277 121.844 67.623 119.221 69.4345C116.598 71.246 112.663 73.5097 111.469 76.6966L109.011 80.5934L108.158 77.2696Z" fill="#1BAF49"/>
<path opacity="0.1" d="M108.158 77.2696C108.193 75.2926 110.262 70.1222 112.36 67.5879C114.458 65.0537 117.715 63.2358 120.001 64.0604C122.125 64.8277 121.844 67.623 119.221 69.4345C116.598 71.246 112.663 73.5097 111.469 76.6966L109.011 80.5934L108.158 77.2696Z" fill="black"/>
<path d="M108.533 78.8741C108.564 78.8722 108.594 78.8602 108.617 78.8401C108.641 78.8201 108.657 78.7929 108.664 78.7627C110.106 72.0323 115.668 66.6391 118.954 65.4834C118.972 65.4773 118.988 65.4677 119.003 65.4551C119.017 65.4424 119.029 65.4271 119.037 65.4099C119.045 65.3927 119.05 65.374 119.051 65.3549C119.052 65.3358 119.049 65.3167 119.043 65.2988C119.036 65.2809 119.027 65.2645 119.014 65.2505C119.001 65.2366 118.986 65.2252 118.968 65.2172C118.951 65.2092 118.933 65.2047 118.914 65.204C118.895 65.2032 118.876 65.2062 118.858 65.2128C115.506 66.3908 109.845 71.87 108.381 78.7022C108.374 78.7397 108.381 78.7783 108.402 78.8102C108.423 78.8422 108.455 78.865 108.492 78.8741H108.533Z" fill="white"/>
<path d="M109.463 83.2136C109.8 82.1088 111.192 80.2973 113.414 78.8201C115.872 77.1868 118.96 76.4705 119.692 75.1747C120.571 73.6242 119.275 72.1183 116.776 72.3858C114.277 72.6532 109.826 75.9802 109.036 81.0964L109.463 83.2136Z" fill="#1BAF49"/>
<path d="M109.001 82.0389C109.029 82.0369 109.055 82.0271 109.078 82.0108C109.1 81.9945 109.118 81.9723 109.129 81.9466C111.3 76.2 115.747 74.2452 117.795 74.0159C117.813 74.014 117.832 74.0082 117.848 73.9992C117.865 73.9901 117.88 73.9777 117.892 73.9629C117.903 73.9481 117.912 73.9311 117.917 73.9129C117.923 73.8947 117.924 73.8756 117.922 73.8567C117.92 73.8377 117.915 73.8192 117.906 73.8023C117.897 73.7855 117.885 73.7706 117.87 73.7587C117.855 73.7468 117.838 73.738 117.819 73.733C117.801 73.728 117.782 73.7267 117.763 73.7294C115.499 73.9809 111.077 75.9771 108.848 81.8447C108.835 81.8802 108.836 81.9195 108.852 81.9541C108.867 81.9888 108.896 82.0158 108.931 82.0294C108.953 82.0408 108.977 82.0442 109.001 82.0389Z" fill="white"/>
<path d="M11.5761 95.9709L13.9862 94.5923C13.9862 94.5923 15.1419 88.2249 14.2791 82.7489C13.0629 75.0506 7.82251 72.3954 5.91864 73.1627C4.01477 73.93 3.56587 76.2063 7.00429 80.654C9.03232 83.2806 11.643 88.8298 11.5761 95.9709Z" fill="#1BAF49"/>
<g opacity="0.1">
<path opacity="0.1" d="M11.5761 95.9709L13.9862 94.5923C13.9862 94.5923 15.1419 88.2249 14.2791 82.7489C13.0629 75.0506 7.82251 72.3954 5.91864 73.1627C4.01477 73.93 3.56587 76.2063 7.00429 80.654C9.03232 83.2806 11.643 88.8298 11.5761 95.9709Z" fill="black"/>
</g>
<path d="M12.4485 92.9146H12.4262C12.4036 92.9119 12.3819 92.9046 12.3622 92.8933C12.3425 92.882 12.3253 92.8668 12.3116 92.8487C12.2979 92.8305 12.2881 92.8098 12.2826 92.7878C12.2771 92.7657 12.2761 92.7428 12.2797 92.7204C13.2762 85.5156 10.3695 77.62 7.1221 74.4363C7.10592 74.4205 7.09307 74.4017 7.08429 74.381C7.07551 74.3602 7.07098 74.3378 7.07098 74.3153C7.07098 74.2927 7.07551 74.2704 7.08429 74.2496C7.09307 74.2288 7.10592 74.21 7.1221 74.1943C7.15429 74.1624 7.19777 74.1445 7.24308 74.1445C7.28839 74.1445 7.33187 74.1624 7.36406 74.1943C10.6815 77.4353 13.6328 85.4583 12.6236 92.7713C12.616 92.8121 12.5943 92.8488 12.5623 92.875C12.5302 92.9013 12.4899 92.9153 12.4485 92.9146Z" fill="white"/>
<path d="M4.89033 99.8329C4.51147 100.053 3.72509 99.575 3.42582 99.3712C2.91025 99.0212 2.49358 98.5442 2.216 97.9863C1.90013 97.3535 1.78887 96.638 1.89763 95.9392C1.95794 95.5717 2.04412 95.2089 2.15551 94.8535L2.47388 93.7965C2.59675 93.4562 2.64875 93.0943 2.6267 92.7332C2.53438 92.0105 1.89445 91.5042 1.31183 91.0681C0.675083 90.5841 -0.00305048 89.9474 0.000133237 89.0782C0.047689 88.4047 0.316286 87.7656 0.764227 87.2603C1.18129 86.735 1.67477 86.2702 2.03772 85.7131C2.3367 85.3308 2.4962 84.8579 2.4898 84.3727C2.45124 84.0743 2.35152 83.7871 2.1969 83.529C1.84293 82.9909 1.53412 82.4244 1.27362 81.8353C1.06031 81.2272 1.09215 80.4727 1.56652 80.0365C1.7787 79.8781 2.0203 79.7636 2.27721 79.6996C2.53413 79.6357 2.80122 79.6236 3.06287 79.664C3.55552 79.7254 4.02905 79.8926 4.45097 80.1543C5.83271 80.9216 6.61909 82.5548 8.0836 83.147C8.66538 83.3271 9.25758 83.4718 9.85693 83.58C10.1567 83.6357 10.4415 83.7534 10.6931 83.9256C10.9447 84.0977 11.1577 84.3205 11.3183 84.5796C11.8563 85.6526 10.8566 86.977 11.2355 88.1168C11.5539 89.126 12.5504 89.5112 13.1011 90.4186C13.3243 90.8208 13.4145 91.2833 13.359 91.7398C13.31 92.5103 13.1212 93.2655 12.8019 93.9684C12.4431 94.6673 12.0335 95.3387 11.5761 95.9774C11.5539 95.9933 4.94764 99.801 4.89033 99.8329Z" fill="#1BAF49"/>
<path d="M8.80301 97.7443C8.78043 97.7435 8.75823 97.7382 8.73768 97.7288C8.71714 97.7194 8.69865 97.7061 8.68327 97.6895C8.6679 97.6729 8.65594 97.6535 8.64808 97.6323C8.64021 97.6111 8.6366 97.5886 8.63746 97.566C8.92081 90.7465 5.70525 83.2138 3.3684 81.0266C3.33726 80.994 3.31989 80.9507 3.31989 80.9056C3.31989 80.8605 3.33726 80.8172 3.3684 80.7846C3.40059 80.7528 3.44407 80.7349 3.48938 80.7349C3.53469 80.7349 3.57817 80.7528 3.61036 80.7846C5.99497 83.0132 9.2742 90.6733 8.98767 97.5915C8.98284 97.636 8.96084 97.6769 8.92636 97.7054C8.89188 97.7339 8.84763 97.7479 8.80301 97.7443Z" fill="white"/>
<path d="M7.78126 89.6894H7.73031C6.11415 89.2433 4.45405 88.9754 2.77963 88.8903C2.75705 88.8894 2.73485 88.8842 2.7143 88.8748C2.69376 88.8654 2.67527 88.852 2.65989 88.8354C2.64451 88.8189 2.63255 88.7995 2.62469 88.7783C2.61683 88.7571 2.61322 88.7346 2.61407 88.712C2.61447 88.6893 2.61944 88.6669 2.6287 88.6461C2.63797 88.6254 2.65132 88.6067 2.66797 88.5912C2.68462 88.5758 2.70422 88.5638 2.72559 88.5561C2.74697 88.5484 2.76968 88.5451 2.79236 88.5464C4.49678 88.6356 6.18655 88.9089 7.83219 89.3615C7.87017 89.3746 7.90234 89.4007 7.92311 89.4351C7.94388 89.4695 7.95194 89.5101 7.94588 89.5498C7.93983 89.5895 7.92005 89.6259 7.88997 89.6526C7.85989 89.6792 7.82143 89.6945 7.78126 89.6957V89.6894Z" fill="white"/>
<path d="M5.73047 97.3018L40.4744 117.359C40.9016 117.576 41.3739 117.689 41.853 117.689C42.332 117.689 42.8043 117.576 43.2315 117.359L109.017 79.3743C109.778 78.9349 109.778 78.2218 109.017 77.7824L74.2696 57.725C73.8424 57.5082 73.3701 57.3953 72.8911 57.3953C72.412 57.3953 71.9397 57.5082 71.5125 57.725L5.73047 95.7099C4.96956 96.1525 4.96956 96.8625 5.73047 97.3018Z" fill="#37474F"/>
<path d="M24.5078 106.62C25.0999 106.92 25.7543 107.077 26.4181 107.077C27.0818 107.077 27.7362 106.92 28.3283 106.62C29.3853 106.009 29.3853 105.029 28.3283 104.411C27.7362 104.111 27.0818 103.955 26.4181 103.955C25.7543 103.955 25.0999 104.111 24.5078 104.411C23.4508 105.022 23.4508 106.022 24.5078 106.62Z" fill="#263238"/>
<path d="M40.4744 117.362L5.73042 97.305C5.0491 96.9134 4.97906 96.3021 5.51393 95.8628C5.17437 96.1316 4.89536 96.4691 4.69512 96.8531C4.49487 97.2371 4.37791 97.6591 4.35187 98.0914V99.3872C4.3775 99.8656 4.51571 100.331 4.75526 100.746C4.99481 101.161 5.32892 101.514 5.73042 101.775L40.4744 121.832C40.8995 122.054 41.3739 122.163 41.8529 122.151V117.69C41.373 117.7 40.8986 117.587 40.4744 117.362Z" fill="#455A64"/>
<path d="M109.017 83.8538C109.418 83.592 109.752 83.2394 109.991 82.8246C110.231 82.4098 110.369 81.9443 110.395 81.466V80.1703C110.368 79.7378 110.251 79.3158 110.05 78.9318C109.849 78.5478 109.57 78.2105 109.23 77.9417C109.768 78.381 109.698 78.9923 109.017 79.3871L43.2315 117.362C42.8066 117.584 42.332 117.694 41.8529 117.681V122.164C42.332 122.177 42.8066 122.067 43.2315 121.845L109.017 83.8538Z" fill="#263238"/>
<path d="M46.2017 113.205L13.4093 94.2677C12.9509 94.0035 12.9509 93.5769 13.4093 93.3126L67.3479 62.1535C67.6044 62.0232 67.888 61.9553 68.1757 61.9553C68.4634 61.9553 68.747 62.0232 69.0035 62.1535L101.812 81.0871C102.27 81.3482 102.27 81.778 101.812 82.0422L47.854 113.205C47.5981 113.335 47.315 113.403 47.0278 113.403C46.7407 113.403 46.4576 113.335 46.2017 113.205Z" fill="#FAFAFA"/>
<path d="M37.6727 87.7251L57.0711 98.9222L44.8265 105.993C44.6124 106.1 44.3765 106.156 44.1372 106.156C43.898 106.156 43.662 106.1 43.448 105.993L25.4281 95.5889C25.3449 95.5607 25.2727 95.5071 25.2215 95.4357C25.1704 95.3644 25.1429 95.2787 25.1429 95.1909C25.1429 95.1031 25.1704 95.0175 25.2215 94.9461C25.2727 94.8747 25.3449 94.8212 25.4281 94.793L37.6727 87.7251Z" fill="#E6E6E6"/>
<path d="M57.0553 98.9222L54.7694 89.8359C54.7174 89.619 54.5968 89.4247 54.4255 89.2819C54.2521 89.1348 54.0375 89.0447 53.8111 89.0241L37.66 87.7251L57.0553 98.9222Z" fill="#E0E0E0"/>
<path d="M57.0553 98.9223L39.6945 98.2059C39.4866 98.1976 39.2884 98.1154 39.1356 97.9742C38.9827 97.8331 38.8852 97.6421 38.8604 97.4355L37.6569 87.7219L57.0553 98.9223Z" fill="#E0E0E0"/>
<path d="M57.0553 98.9223L39.6945 98.2059C39.4866 98.1976 39.2884 98.1154 39.1356 97.9742C38.9827 97.8331 38.8852 97.6421 38.8604 97.4355L37.6569 87.7219L39.7996 97.2731C39.8189 97.3582 39.8648 97.4349 39.9306 97.4921C39.9964 97.5494 40.0788 97.5842 40.1657 97.5915L57.0553 98.9223Z" fill="#FAFAFA"/>
<path d="M41.5505 98.1772L44.1388 106.391L44.8265 105.993L41.5505 98.1772Z" fill="#FAFAFA"/>
<path d="M24.7405 95.1909L25.4282 94.793L38.9653 96.6841L24.7405 95.1909Z" fill="#FAFAFA"/>
<path d="M48.7077 83.6405L64.1392 92.5549C64.3528 92.6632 64.589 92.7196 64.8285 92.7196C65.068 92.7196 65.3041 92.6632 65.5177 92.5549L87.4186 79.9155C87.5017 79.8873 87.574 79.8338 87.6251 79.7624C87.6763 79.691 87.7038 79.6054 87.7038 79.5176C87.7038 79.4298 87.6763 79.3441 87.6251 79.2728C87.574 79.2014 87.5017 79.1478 87.4186 79.1196L71.9871 70.2052C71.7734 70.0969 71.5373 70.0405 71.2978 70.0405C71.0583 70.0405 70.8222 70.0969 70.6085 70.2052L48.7077 82.8446C48.6245 82.8728 48.5523 82.9263 48.5012 82.9977C48.45 83.0691 48.4225 83.1547 48.4225 83.2425C48.4225 83.3303 48.45 83.416 48.5012 83.4873C48.5523 83.5587 48.6245 83.6123 48.7077 83.6405Z" fill="#E6E6E6"/>
<path d="M60.9775 82.4625C60.7937 82.1769 60.6847 81.8495 60.6608 81.5106C60.6369 81.1717 60.6987 80.8323 60.8406 80.5236C61.1272 79.8869 61.7512 79.2756 62.7095 78.7248C63.7602 78.1071 64.92 77.6974 66.1256 77.5182C67.3017 77.3487 68.4987 77.3919 69.6595 77.6455C70.8569 77.906 72.0055 78.3541 73.0629 78.9732C74.086 79.5611 74.7822 80.1681 75.1515 80.7942C75.3318 81.0609 75.4396 81.37 75.4642 81.691C75.4887 82.012 75.4292 82.3339 75.2915 82.6249C75.0114 83.2202 74.4224 83.7774 73.531 84.2932C72.6763 84.8096 71.7146 85.1233 70.7197 85.2101C69.8916 85.2907 69.0583 85.1198 68.3288 84.7198C68.198 84.663 68.0807 84.5792 67.9847 84.4738C67.8886 84.3685 67.816 84.244 67.7716 84.1085C67.7504 83.9913 67.7608 83.8705 67.8016 83.7587C67.8424 83.6468 67.9123 83.5478 68.004 83.4718C67.4912 83.5135 66.975 83.4781 66.4726 83.3667C65.9803 83.2606 65.5076 83.078 65.0718 82.8255C64.3374 82.401 63.9533 81.9404 63.9193 81.4437C63.8853 80.9471 64.2366 80.4907 64.9731 80.0747C65.8618 79.5536 66.8787 79.2922 67.9085 79.3202C68.9603 79.3435 69.9885 79.6362 70.8948 80.1702C71.2699 80.3794 71.6042 80.6544 71.8818 80.9821C72.1023 81.2247 72.2463 81.5271 72.2957 81.8512L69.4303 83.5131C69.1979 83.6469 69.0706 83.7647 69.0515 83.8665C69.0324 83.9684 69.1151 84.0767 69.2966 84.1849C69.6931 84.3774 70.1468 84.416 70.5701 84.2932C71.1936 84.1473 71.79 83.9034 72.3371 83.5704C73.0566 83.1566 73.5119 82.7108 73.7029 82.2428C73.7986 82.0158 73.8351 81.7681 73.8089 81.5231C73.7827 81.2781 73.6948 81.0437 73.5532 80.842C73.169 80.2932 72.6578 79.8454 72.0633 79.5367C70.8416 78.8139 69.4604 78.4038 68.0422 78.3428C66.6036 78.3023 65.1836 78.6758 63.9511 79.4189C63.1679 79.871 62.6649 80.3485 62.4421 80.8515C62.3304 81.0857 62.281 81.3447 62.2989 81.6036C62.3167 81.8624 62.4011 82.1122 62.5439 82.3288C62.9296 82.8964 63.4504 83.3592 64.0594 83.6755C64.464 83.9071 64.8906 84.098 65.3329 84.2454C65.7454 84.388 66.1725 84.4841 66.6064 84.5319C66.6527 84.5356 66.6979 84.5474 66.7401 84.5669C66.7624 84.5669 66.7624 84.6083 66.7401 84.6497L66.3198 85.2387C66.3025 85.2615 66.2821 85.2819 66.2593 85.2992C66.1974 85.3203 66.1302 85.3203 66.0683 85.2992C65.5433 85.2329 65.0268 85.1113 64.5274 84.9363C64.0054 84.763 63.5019 84.5379 63.0247 84.2645C62.0377 83.736 61.3564 83.1152 60.9775 82.4625ZM67.6156 82.7395C68.0546 82.7952 68.5001 82.7116 68.8891 82.5007L70.5542 81.5456C70.3569 81.2112 70.0658 80.9422 69.7169 80.772C69.1854 80.4602 68.5819 80.2924 67.9658 80.2848C67.3521 80.2742 66.7474 80.4328 66.2179 80.7433C65.7531 81.0107 65.5271 81.275 65.5398 81.536C65.5398 81.7971 65.8009 82.0677 66.288 82.3479C66.6966 82.5745 67.1496 82.7092 67.6156 82.7427V82.7395Z" fill="#FAFAFA"/>
<path d="M88.9751 69.3774C89.1061 69.4449 89.2512 69.4802 89.3986 69.4802C89.5459 69.4802 89.6911 69.4449 89.822 69.3774C89.8726 69.3598 89.9164 69.3269 89.9474 69.2832C89.9785 69.2396 89.9951 69.1874 89.9951 69.1338C89.9951 69.0803 89.9785 69.028 89.9474 68.9844C89.9164 68.9408 89.8726 68.9078 89.822 68.8903C89.6903 68.8251 89.5454 68.7913 89.3986 68.7913C89.2517 68.7913 89.1068 68.8251 88.9751 68.8903C88.9246 68.9078 88.8807 68.9408 88.8497 68.9844C88.8187 69.028 88.802 69.0803 88.802 69.1338C88.802 69.1874 88.8187 69.2396 88.8497 69.2832C88.8807 69.3269 88.9246 69.3598 88.9751 69.3774Z" fill="#263238"/>
<path d="M90.325 73.2105C90.5868 73.3439 90.8764 73.4134 91.1702 73.4134C91.4641 73.4134 91.7537 73.3439 92.0155 73.2105C92.4835 72.9431 92.4835 72.5037 92.0155 72.2363C91.7537 72.103 91.4641 72.0334 91.1702 72.0334C90.8764 72.0334 90.5868 72.103 90.325 72.2363C89.8474 72.5037 89.8474 72.9431 90.325 73.2105Z" fill="#263238"/>
<path d="M89.1343 71.5135C89.4527 71.332 89.4304 71.0327 89.0961 70.8417L83.5373 67.6294C83.3586 67.5337 83.1597 67.482 82.957 67.4787C82.7543 67.4754 82.5538 67.5205 82.3721 67.6103C82.0537 67.7885 82.0792 68.091 82.4103 68.282L87.9691 71.4912C88.148 71.5857 88.3467 71.6369 88.549 71.6407C88.7514 71.6446 88.9518 71.601 89.1343 71.5135Z" fill="#263238"/>
<path d="M17.0615 31.0262C17.0791 30.6843 17.1774 30.3514 17.3484 30.0548C17.5194 29.7582 17.7582 29.5063 18.0452 29.3198L68.4213 0.236461C68.7265 0.0810269 69.0641 0 69.4066 0C69.7491 0 70.0868 0.0810269 70.392 0.236461L71.4999 0.873205C71.7866 1.05946 72.0251 1.31085 72.1961 1.60687C72.367 1.90289 72.4656 2.23513 72.4837 2.5765V41.195C72.4641 41.5365 72.3649 41.8686 72.1941 42.1649C72.0233 42.4612 71.7856 42.7135 71.4999 42.9015L21.1239 71.9848C20.8188 72.1387 20.4818 72.2189 20.1401 72.2189C19.7984 72.2189 19.4614 72.1387 19.1564 71.9848L18.0452 71.3481C17.7596 71.16 17.5219 70.9078 17.351 70.6115C17.1802 70.3152 17.0811 69.983 17.0615 69.6416V31.0262Z" fill="#1BAF49"/>
<path opacity="0.4" d="M17.3481 30.0552L20.1434 31.6661L72.1972 1.61179C72.0314 1.31221 71.7927 1.05928 71.5032 0.876347L70.3889 0.239603C70.0842 0.0841965 69.7471 0.00317383 69.4051 0.00317383C69.0631 0.00317383 68.726 0.0841965 68.4213 0.239603L18.0485 29.3197C17.7549 29.4996 17.5134 29.7531 17.3481 30.0552Z" fill="white"/>
<path opacity="0.1" d="M17.0616 31.023V69.6352C17.0799 69.9774 17.1788 70.3103 17.3503 70.6069C17.5218 70.9035 17.7611 71.1553 18.0486 71.3417L19.1565 71.9784C19.2422 72.0282 19.3329 72.0688 19.4272 72.0994C19.5587 72.1428 19.6941 72.1737 19.8315 72.1917C20.0902 72.2253 20.3527 72.2156 20.6083 72.1631C20.6729 72.1499 20.7367 72.1329 20.7993 72.1122C20.84 72.1012 20.8794 72.0863 20.9171 72.0676C20.8427 72.0995 20.7625 72.1159 20.6815 72.1159C20.6005 72.1159 20.5204 72.0995 20.4459 72.0676C20.3428 71.9986 20.2602 71.903 20.2069 71.7909C20.1537 71.6788 20.1318 71.5544 20.1435 71.4308V32.7964C20.1337 32.6213 20.1775 32.4473 20.2691 32.2977C20.3606 32.1481 20.4956 32.03 20.6561 31.9591L20.1435 31.6598L17.3482 30.0488C17.1717 30.3441 17.0731 30.6793 17.0616 31.023Z" fill="black"/>
<path opacity="0.2" d="M20.1432 31.6662L43.4735 40.3832C44.2804 40.6834 45.1654 40.7 45.983 40.4303C46.8006 40.1607 47.5021 39.6209 47.9721 38.8996L51.7194 33.1689L72.3817 1.51001L52.4644 33.3759L72.4836 41.211C72.4633 41.5607 72.3537 41.8994 72.1652 42.1948L52.4102 33.465L48.0549 40.4374C47.5718 41.2112 46.8257 41.7847 45.9537 42.0526C45.0816 42.3205 44.1422 42.2647 43.308 41.8955L40.2102 40.5265L20.4425 72.0645C20.3393 71.9955 20.2567 71.8999 20.2035 71.7878C20.1502 71.6757 20.1283 71.5513 20.14 71.4277V70.791L40.1115 40.501L20.1432 31.6662Z" fill="black"/>
<path d="M25.9152 22.6498L22.4704 20.6664L22.4386 20.6473C20.9104 19.7845 18.8155 19.915 16.4946 21.2522C11.8241 23.9488 8.03864 30.5073 8.03864 35.8973C8.03864 38.5875 8.99375 40.4818 10.506 41.3669L13.6388 43.153L14.387 41.9018C15.2393 41.708 16.0573 41.3859 16.813 40.9467C21.4835 38.2501 25.2689 31.6916 25.2689 26.3016C25.2686 25.574 25.1798 24.8492 25.0047 24.143L25.9152 22.6498Z" fill="#37474F"/>
<path d="M19.7611 23.1338C15.0874 25.8304 11.3019 32.3889 11.3019 37.7789C11.3019 43.169 15.0874 45.3594 19.7579 42.6628C24.4284 39.9661 28.2171 33.4045 28.2171 28.0176C28.2171 22.6308 24.4316 20.434 19.7611 23.1338Z" fill="#455A64"/>
<path d="M17.1316 33.5414C17.1015 33.5102 17.0797 33.4721 17.068 33.4304C17.0563 33.3888 17.0552 33.3448 17.0647 33.3026C17.0808 33.1877 17.1245 33.0785 17.1921 32.9842L19.8059 29.1033C19.8728 29.011 19.9365 28.9186 20.0065 28.8295C20.0648 28.7462 20.1396 28.6757 20.2262 28.6225L21.1813 28.0813C21.213 28.0578 21.2509 28.0441 21.2903 28.042C21.3297 28.0399 21.3688 28.0495 21.4028 28.0696C21.4368 28.0896 21.4641 28.1193 21.4813 28.1548C21.4986 28.1903 21.505 28.23 21.4997 28.2691V37.2281C21.4946 37.341 21.4606 37.4506 21.401 37.5465C21.3483 37.6457 21.2703 37.7292 21.1749 37.7885L20.2007 38.3488C20.1683 38.3734 20.1297 38.3885 20.0893 38.3924C20.0488 38.3963 20.008 38.389 19.9715 38.3711C19.9382 38.3479 19.9117 38.3161 19.8949 38.2791C19.8781 38.2422 19.8715 38.2013 19.876 38.161V31.3128L18.1727 33.8375C18.1164 33.9298 18.0346 34.0039 17.9371 34.0508C17.9018 34.0685 17.8623 34.0762 17.823 34.0728C17.7836 34.0694 17.746 34.0552 17.7142 34.0317L17.1316 33.5414Z" fill="#FAFAFA"/>
<path d="M95.1356 64.4202V63.8503H95.2757C95.4869 63.4631 95.8083 63.1473 96.199 62.9429C96.9954 62.5395 97.8756 62.3293 98.7683 62.3293C99.661 62.3293 100.541 62.5395 101.338 62.9429C101.728 63.1473 102.05 63.4631 102.261 63.8503H102.401V64.4011C102.401 64.9455 102.057 65.4931 101.338 65.9101C100.543 66.3104 99.6656 66.5186 98.7759 66.5181C97.8862 66.5175 97.009 66.3082 96.2149 65.907C95.4859 65.4994 95.1325 64.9518 95.1356 64.4202Z" fill="#263238"/>
<path d="M101.338 62.3666C100.542 61.9618 99.6612 61.7507 98.7682 61.7507C97.8753 61.7507 96.9949 61.9618 96.199 62.3666C94.779 63.1848 94.779 64.5124 96.199 65.3338C96.9954 65.7372 97.8755 65.9474 98.7682 65.9474C99.661 65.9474 100.541 65.7372 101.338 65.3338C102.757 64.5124 102.757 63.1848 101.338 62.3666Z" fill="#455A64"/>
<path d="M99.7172 42.0291V63.6083C99.7097 63.6906 99.6803 63.7694 99.6322 63.8365C99.5841 63.9037 99.5189 63.9568 99.4434 63.9904C99.2385 64.0954 99.0115 64.1502 98.7812 64.1502C98.5509 64.1502 98.324 64.0954 98.119 63.9904C98.0435 63.9568 97.9784 63.9037 97.9303 63.8365C97.8821 63.7694 97.8528 63.6906 97.8452 63.6083V42.0291H99.7172Z" fill="#37474F"/>
<path d="M97.8323 44.3787V45.0536L99.7043 46.1329V45.4611L97.8323 44.3787Z" fill="#263238"/>
<path d="M109.774 36.3143L109.615 36.6327L107.902 40.0648L107.091 41.7108L104.34 47.2281L104.037 47.8362H103.983C103.873 47.8399 103.763 47.8147 103.665 47.763L91.4044 40.676C91.313 40.6182 91.2365 40.5396 91.1812 40.4467C91.1259 40.3538 91.0933 40.2491 91.086 40.1412V35.4038C91.086 33.0415 92.6428 30.2271 94.5626 29.1191C95.4732 28.5938 96.2977 28.5524 96.9186 28.8995L109.774 36.3143Z" fill="#455A64"/>
<path d="M107.46 36.5657C106.683 36.8522 103.865 39.1795 103.865 42.8472C103.865 45.929 103.865 47.5272 103.865 47.8169H103.98H104.034L104.336 47.2089L107.09 41.7106L107.902 40.0805L108.09 39.708L107.46 36.5657Z" fill="#37474F"/>
<path d="M110.784 43.9393C110.753 43.9912 110.709 44.0341 110.656 44.0634L110.625 44.0825L104.292 47.7597C104.214 47.8016 104.127 47.8255 104.038 47.8298H103.983V42.8473C103.999 41.9458 104.186 41.0555 104.534 40.2239L104.853 40.4022L107.097 41.6979L110.58 43.7132L110.758 43.8151C110.778 43.8287 110.791 43.8491 110.796 43.8721C110.8 43.8952 110.796 43.9192 110.784 43.9393Z" fill="#37474F"/>
<path d="M109.774 36.3143C109.16 35.9959 108.348 36.0501 107.46 36.5658C106.37 37.2509 105.489 38.2223 104.913 39.3739C104.767 39.6498 104.636 39.9336 104.521 40.2239C104.173 41.0556 103.986 41.9459 103.97 42.8473V47.8266H104.025C104.114 47.8224 104.201 47.7984 104.279 47.7566L110.609 44.0985L110.64 44.0794C110.69 44.0465 110.734 44.0043 110.768 43.9552C110.857 43.8436 110.908 43.7064 110.914 43.5636V38.8454C110.93 37.5719 110.484 36.69 109.774 36.3143ZM110.481 43.7642L104.432 47.2663C104.381 47.295 104.34 47.2663 104.34 47.2122V42.8473C104.356 42.008 104.528 41.1789 104.846 40.4022C104.85 40.3853 104.856 40.3692 104.865 40.3545C104.987 40.047 105.127 39.7472 105.285 39.4566C105.822 38.399 106.635 37.5067 107.638 36.8746C108.027 36.628 108.474 36.4885 108.934 36.4703C109.171 36.4677 109.406 36.5246 109.615 36.6359C110.22 36.9542 110.57 37.7406 110.57 38.8326V43.6082C110.569 43.6394 110.56 43.6697 110.544 43.6968C110.529 43.7238 110.507 43.7469 110.481 43.7642Z" fill="#455A64"/>
<path d="M110.574 38.8454V43.726L104.843 40.4149C104.847 40.398 104.853 40.3819 104.862 40.3672C105.477 38.8326 106.511 37.5305 107.635 36.8874C108.024 36.6407 108.471 36.5012 108.931 36.483C109.947 36.4703 110.574 37.3777 110.574 38.8454Z" fill="#263238"/>
<path d="M100.086 41.2649L100.592 40.972C100.7 40.9232 100.819 40.9037 100.937 40.9154C101.055 40.9272 101.168 40.9697 101.264 41.0389C101.542 41.2204 101.774 41.4649 101.939 41.7525C102.105 42.0402 102.201 42.3628 102.219 42.6944C102.231 42.8109 102.212 42.9283 102.164 43.035C102.116 43.1417 102.04 43.234 101.945 43.3025L101.477 43.5731L101.392 43.4299C101.295 43.4088 101.203 43.3733 101.118 43.3248C100.84 43.1432 100.608 42.8988 100.442 42.6111C100.276 42.3235 100.181 42.0008 100.163 41.6693C100.163 41.5867 100.173 41.5046 100.191 41.4241L100.086 41.2649Z" fill="#E0E0E0"/>
<path d="M100.784 41.3191C101.062 41.5002 101.293 41.7441 101.459 42.0312C101.625 42.3182 101.721 42.6404 101.739 42.9715C101.739 43.5827 101.309 43.8279 100.784 43.5254C100.506 43.3437 100.275 43.0992 100.109 42.8116C99.943 42.524 99.8471 42.2014 99.8288 41.8699C99.8256 41.2618 100.255 41.0135 100.784 41.3191Z" fill="#FAFAFA"/>
<path d="M100.784 42.685C100.71 42.685 100.64 42.6558 100.588 42.6039C100.536 42.5519 100.507 42.4815 100.507 42.408V34.5729C100.507 34.4994 100.536 34.429 100.588 34.377C100.64 34.3251 100.71 34.2959 100.784 34.2959C100.857 34.2959 100.928 34.3251 100.98 34.377C101.031 34.429 101.061 34.4994 101.061 34.5729V42.408C101.061 42.4815 101.031 42.5519 100.98 42.6039C100.928 42.6558 100.857 42.685 100.784 42.685Z" fill="#EBEBEB"/>
<path d="M100.507 35.3465L97.7308 33.7451L98.5999 35.4166L97.7308 36.0852L100.507 37.6897V35.3465Z" fill="#1BAF49"/>
<path d="M109.129 40.4368C109.127 40.3942 109.115 40.3527 109.094 40.3156C109.073 40.2785 109.043 40.247 109.008 40.2234L102.729 36.6004C102.691 36.5816 102.649 36.5718 102.607 36.5718C102.564 36.5718 102.522 36.5816 102.484 36.6004L102.344 36.68C102.309 36.7035 102.279 36.7351 102.258 36.7721C102.237 36.8092 102.225 36.8507 102.223 36.8933V41.7102C102.226 41.7526 102.238 41.7939 102.259 41.8308C102.28 41.8678 102.309 41.8995 102.344 41.9236L108.632 45.5307C108.67 45.5495 108.712 45.5593 108.754 45.5593C108.797 45.5593 108.839 45.5495 108.877 45.5307L109.017 45.4511C109.053 45.4276 109.082 45.396 109.103 45.359C109.124 45.3219 109.136 45.2804 109.138 45.2378L109.129 40.4368Z" fill="#F0F0F0"/>
<path d="M109.093 40.3099L108.746 40.5104L102.264 36.7664C102.285 36.7292 102.315 36.6975 102.35 36.6741L102.49 36.5945C102.528 36.5741 102.57 36.5635 102.613 36.5635C102.656 36.5635 102.698 36.5741 102.736 36.5945L109.014 40.2175C109.047 40.2418 109.074 40.2734 109.093 40.3099Z" fill="#FAFAFA"/>
<path d="M109.128 40.4372V45.2478C109.126 45.2903 109.114 45.3318 109.093 45.3689C109.072 45.406 109.043 45.4376 109.007 45.4611L108.867 45.5407L108.835 45.5566H108.784C108.752 45.5629 108.718 45.5629 108.686 45.5566H108.663H108.647C108.657 45.5613 108.667 45.5638 108.678 45.5638C108.688 45.5638 108.699 45.5613 108.708 45.5566C108.721 45.548 108.731 45.5361 108.738 45.5221C108.745 45.5081 108.748 45.4925 108.746 45.477V40.6505C108.747 40.6286 108.741 40.6071 108.729 40.5888C108.717 40.5706 108.7 40.5565 108.679 40.5486L108.746 40.5104L109.093 40.3098C109.116 40.3484 109.128 40.3923 109.128 40.4372Z" fill="#E0E0E0"/>
<path d="M108.746 40.5105L105.836 41.5961C105.736 41.6331 105.626 41.635 105.524 41.6015C105.422 41.568 105.335 41.501 105.276 41.4115L104.811 40.6983L102.236 36.7505L104.716 40.7238L102.223 41.7107C102.225 41.7536 102.238 41.7953 102.261 41.8317L104.725 40.7429L105.267 41.612C105.327 41.7087 105.42 41.7804 105.529 41.8137C105.637 41.8471 105.755 41.8399 105.859 41.7935L106.244 41.6248L108.708 45.5312C108.721 45.5226 108.732 45.5107 108.738 45.4967C108.745 45.4827 108.748 45.4671 108.746 45.4516V45.372L106.257 41.5961L108.746 40.5105Z" fill="#E0E0E0"/>
<path d="M113.987 41.2076L112.713 42.6626L112.688 42.6944L111.497 44.073C111.426 44.1508 111.345 44.2183 111.255 44.2735L104.569 48.1258C104.547 48.139 104.522 48.1477 104.496 48.1513H104.493L106.9 45.3719L107.04 45.2127C108.815 43.276 110.851 41.5958 113.089 40.2207C113.965 39.7144 114.525 39.533 114.738 39.638C114.999 39.7813 114.757 40.3194 113.987 41.2076Z" fill="#37474F"/>
</svg>
