<svg width="20" height="21" viewBox="0 0 20 21" fill="none" xmlns="http://www.w3.org/2000/svg">
<path d="M4.66669 17.8334V17.1665C4.66669 14.9574 6.45755 13.1667 8.66669 13.1667H11.3334C13.5425 13.1667 15.3334 14.9574 15.3334 17.1665V17.8334M10 5.16669C8.52726 5.16669 7.33335 6.36059 7.33335 7.83335C7.33335 9.30611 8.52726 10.5 10 10.5C11.4728 10.5 12.6667 9.30611 12.6667 7.83335C12.6667 6.36059 11.4728 5.16669 10 5.16669ZM10 19.8334C4.84536 19.8334 0.666687 15.6547 0.666687 10.5C0.666687 5.34536 4.84536 1.16669 10 1.16669C15.1547 1.16669 19.3334 5.34536 19.3334 10.5C19.3334 15.6547 15.1547 19.8334 10 19.8334Z" stroke="#1BAF49" stroke-linecap="square"/>
</svg>
