<svg width="20" height="21" viewBox="0 0 20 21" fill="none" xmlns="http://www.w3.org/2000/svg">
<path d="M4.66669 17.8333V17.1664C4.66669 14.9573 6.45755 13.1666 8.66669 13.1666H11.3334C13.5425 13.1666 15.3334 14.9573 15.3334 17.1664V17.8333M10 5.16663C8.52726 5.16663 7.33335 6.36053 7.33335 7.83329C7.33335 9.30605 8.52726 10.5 10 10.5C11.4728 10.5 12.6667 9.30605 12.6667 7.83329C12.6667 6.36053 11.4728 5.16663 10 5.16663ZM10 19.8333C4.84536 19.8333 0.666687 15.6546 0.666687 10.5C0.666687 5.3453 4.84536 1.16663 10 1.16663C15.1547 1.16663 19.3334 5.3453 19.3334 10.5C19.3334 15.6546 15.1547 19.8333 10 19.8333Z" stroke="#3E4F43" stroke-linecap="square"/>
</svg>
