<svg width="47" height="48" viewBox="0 0 47 48" fill="none" xmlns="http://www.w3.org/2000/svg">
<rect x="0.5" y="0.5" width="46" height="47" rx="11.5" fill="white"/>
<rect x="0.5" y="0.5" width="46" height="47" rx="11.5" stroke="#EBEBEB"/>
<path d="M27.2217 16.75C28.3313 16.75 29.3481 17.1636 30.1201 17.9189L30.2705 18.0742C31.0517 18.9208 31.4999 20.0973 31.5 21.4043C31.5 22.6283 31.0809 23.7851 30.0928 25.0527L29.8877 25.3076C29.1085 26.247 28.0652 27.2061 26.8203 28.2842L25.5098 29.4053C25.2003 29.6688 24.8689 29.9509 24.5234 30.2471L23.4521 31.1738V31.1748C23.3969 31.2231 23.3249 31.25 23.25 31.25L23.1943 31.2451C23.1585 31.2385 23.124 31.2257 23.0928 31.207L23.0479 31.1748V31.1738L21.9766 30.2471L20.9902 29.4062C19.3886 28.0426 18.0333 26.8862 17.0234 25.7793L16.6123 25.3076C15.4768 23.9387 15 22.7095 15 21.4043C15.0001 20.0972 15.4485 18.9208 16.2295 18.0742L16.2285 18.0732C17.0164 17.2197 18.0951 16.75 19.2783 16.75C20.0392 16.75 20.7398 16.9573 21.3779 17.376L21.6475 17.5693C22.0092 17.8488 22.3437 18.1955 22.6426 18.6084L23.25 19.4473L23.8574 18.6084C24.0816 18.2987 24.3255 18.0258 24.5859 17.791L24.8516 17.5693C25.5607 17.0215 26.352 16.75 27.2217 16.75Z" stroke="#696969" stroke-width="1.5"/>
</svg>
