<svg width="63" height="18" viewBox="0 0 63 18" fill="none" xmlns="http://www.w3.org/2000/svg">
<path d="M62.6229 8.268L55.4683 0.268C55.2507 0.0958497 54.9643 8.11175e-05 54.6669 0H1.17857C0.528 0 0 0.448 0 1V17C0 17.552 0.528 18 1.17857 18H54.6669C54.9643 17.9999 55.2507 17.9042 55.4683 17.732L62.6229 9.732C62.8633 9.544 63 9.278 63 9C63 8.722 62.8633 8.456 62.6229 8.268Z" fill="url(#paint0_linear_0_1)"/>
<path d="M9.584 12V6.4H13.064V7.056H10.384V8.872H12.624V9.512H10.384V12H9.584ZM15.5164 12.096C15.1324 12.096 14.7911 12.008 14.4924 11.832C14.1938 11.656 13.9591 11.4107 13.7884 11.096C13.6231 10.7813 13.5404 10.416 13.5404 10C13.5404 9.57333 13.6231 9.20267 13.7884 8.888C13.9591 8.568 14.1938 8.32 14.4924 8.144C14.7911 7.96267 15.1378 7.872 15.5324 7.872C15.9271 7.872 16.2658 7.96 16.5484 8.136C16.8311 8.312 17.0498 8.54667 17.2044 8.84C17.3591 9.128 17.4364 9.448 17.4364 9.8C17.4364 9.85333 17.4338 9.912 17.4284 9.976C17.4284 10.0347 17.4258 10.1013 17.4204 10.176H14.1244V9.608H16.6364C16.6204 9.272 16.5084 9.01067 16.3004 8.824C16.0924 8.632 15.8338 8.536 15.5244 8.536C15.3058 8.536 15.1058 8.58667 14.9244 8.688C14.7431 8.784 14.5964 8.928 14.4844 9.12C14.3778 9.30667 14.3244 9.544 14.3244 9.832V10.056C14.3244 10.3547 14.3778 10.608 14.4844 10.816C14.5964 11.0187 14.7431 11.1733 14.9244 11.28C15.1058 11.3813 15.3031 11.432 15.5164 11.432C15.7724 11.432 15.9831 11.376 16.1484 11.264C16.3138 11.152 16.4364 11 16.5164 10.808H17.3164C17.2471 11.0533 17.1298 11.2747 16.9644 11.472C16.7991 11.664 16.5938 11.816 16.3484 11.928C16.1084 12.04 15.8311 12.096 15.5164 12.096ZM19.6613 12.096C19.3306 12.096 19.0559 12.04 18.8372 11.928C18.6186 11.816 18.4559 11.6667 18.3493 11.48C18.2426 11.288 18.1893 11.0827 18.1893 10.864C18.1893 10.5973 18.2586 10.3707 18.3973 10.184C18.5359 9.992 18.7333 9.84533 18.9893 9.744C19.2453 9.64267 19.5519 9.592 19.9093 9.592H20.9573C20.9573 9.35733 20.9226 9.16267 20.8533 9.008C20.7839 8.85333 20.6799 8.73867 20.5413 8.664C20.4079 8.584 20.2373 8.544 20.0293 8.544C19.7893 8.544 19.5839 8.60267 19.4133 8.72C19.2426 8.832 19.1359 9 19.0933 9.224H18.2933C18.3253 8.94133 18.4213 8.70133 18.5813 8.504C18.7466 8.30133 18.9573 8.14667 19.2133 8.04C19.4693 7.928 19.7413 7.872 20.0293 7.872C20.4079 7.872 20.7253 7.93867 20.9813 8.072C21.2373 8.20533 21.4293 8.39467 21.5573 8.64C21.6906 8.88 21.7573 9.168 21.7573 9.504V12H21.0613L20.9973 11.32C20.9386 11.4267 20.8693 11.528 20.7893 11.624C20.7093 11.72 20.6133 11.8027 20.5013 11.872C20.3946 11.9413 20.2693 11.9947 20.1253 12.032C19.9866 12.0747 19.8319 12.096 19.6613 12.096ZM19.8133 11.448C19.9839 11.448 20.1386 11.4133 20.2773 11.344C20.4159 11.2747 20.5333 11.1813 20.6293 11.064C20.7306 10.9413 20.8053 10.8053 20.8533 10.656C20.9066 10.5013 20.9359 10.344 20.9413 10.184V10.16H19.9893C19.7599 10.16 19.5733 10.1893 19.4293 10.248C19.2906 10.3013 19.1893 10.376 19.1253 10.472C19.0613 10.568 19.0293 10.68 19.0293 10.808C19.0293 10.9413 19.0586 11.056 19.1173 11.152C19.1813 11.2427 19.2719 11.3147 19.3893 11.368C19.5066 11.4213 19.6479 11.448 19.8133 11.448ZM24.3564 12C24.1004 12 23.8791 11.96 23.6924 11.88C23.5058 11.8 23.3618 11.6667 23.2604 11.48C23.1591 11.2933 23.1084 11.04 23.1084 10.72V8.648H22.4124V7.968H23.1084L23.2044 6.96H23.9084V7.968H25.0524V8.648H23.9084V10.728C23.9084 10.9573 23.9564 11.1147 24.0524 11.2C24.1484 11.28 24.3138 11.32 24.5484 11.32H25.0124V12H24.3564ZM27.4146 12.096C27.1 12.096 26.8253 12.032 26.5906 11.904C26.3613 11.776 26.1826 11.584 26.0546 11.328C25.932 11.072 25.8706 10.7493 25.8706 10.36V7.968H26.6706V10.272C26.6706 10.6507 26.7533 10.936 26.9186 11.128C27.084 11.32 27.3213 11.416 27.6306 11.416C27.8386 11.416 28.0253 11.3653 28.1906 11.264C28.3613 11.1627 28.4946 11.016 28.5906 10.824C28.6866 10.632 28.7346 10.3973 28.7346 10.12V7.968H29.5346V12H28.8226L28.7666 11.312C28.644 11.5573 28.4653 11.7493 28.2306 11.888C27.996 12.0267 27.724 12.096 27.4146 12.096ZM30.6299 12V7.968H31.3499L31.4219 8.728C31.5126 8.54667 31.6299 8.39467 31.7739 8.272C31.9179 8.144 32.0859 8.04533 32.2779 7.976C32.4753 7.90667 32.6993 7.872 32.9499 7.872V8.72H32.6619C32.4966 8.72 32.3393 8.74133 32.1899 8.784C32.0406 8.82133 31.9073 8.888 31.7899 8.984C31.6779 9.08 31.5899 9.21067 31.5259 9.376C31.4619 9.54133 31.4299 9.74667 31.4299 9.992V12H30.6299ZM35.3914 12.096C35.0074 12.096 34.6661 12.008 34.3674 11.832C34.0688 11.656 33.8341 11.4107 33.6634 11.096C33.4981 10.7813 33.4154 10.416 33.4154 10C33.4154 9.57333 33.4981 9.20267 33.6634 8.888C33.8341 8.568 34.0688 8.32 34.3674 8.144C34.6661 7.96267 35.0128 7.872 35.4074 7.872C35.8021 7.872 36.1408 7.96 36.4234 8.136C36.7061 8.312 36.9248 8.54667 37.0794 8.84C37.2341 9.128 37.3114 9.448 37.3114 9.8C37.3114 9.85333 37.3088 9.912 37.3034 9.976C37.3034 10.0347 37.3008 10.1013 37.2954 10.176H33.9994V9.608H36.5114C36.4954 9.272 36.3834 9.01067 36.1754 8.824C35.9674 8.632 35.7088 8.536 35.3994 8.536C35.1808 8.536 34.9808 8.58667 34.7994 8.688C34.6181 8.784 34.4714 8.928 34.3594 9.12C34.2528 9.30667 34.1994 9.544 34.1994 9.832V10.056C34.1994 10.3547 34.2528 10.608 34.3594 10.816C34.4714 11.0187 34.6181 11.1733 34.7994 11.28C34.9808 11.3813 35.1781 11.432 35.3914 11.432C35.6474 11.432 35.8581 11.376 36.0234 11.264C36.1888 11.152 36.3114 11 36.3914 10.808H37.1914C37.1221 11.0533 37.0048 11.2747 36.8394 11.472C36.6741 11.664 36.4688 11.816 36.2234 11.928C35.9834 12.04 35.7061 12.096 35.3914 12.096ZM39.9923 12.096C39.6083 12.096 39.2696 12.0053 38.9763 11.824C38.6829 11.6373 38.4536 11.3867 38.2883 11.072C38.1283 10.752 38.0483 10.3893 38.0483 9.984C38.0483 9.57333 38.1283 9.21067 38.2883 8.896C38.4536 8.58133 38.6829 8.33333 38.9763 8.152C39.2749 7.96533 39.6163 7.872 40.0003 7.872C40.3149 7.872 40.5923 7.936 40.8323 8.064C41.0723 8.18667 41.2589 8.36267 41.3923 8.592V6.24H42.1923V12H41.4723L41.3923 11.376C41.3123 11.4987 41.2083 11.616 41.0803 11.728C40.9523 11.8347 40.7976 11.9227 40.6163 11.992C40.4349 12.0613 40.2269 12.096 39.9923 12.096ZM40.1203 11.4C40.3709 11.4 40.5923 11.3413 40.7843 11.224C40.9763 11.1067 41.1229 10.9413 41.2243 10.728C41.3309 10.5147 41.3843 10.2667 41.3843 9.984C41.3843 9.70133 41.3309 9.456 41.2243 9.248C41.1229 9.03467 40.9763 8.86933 40.7843 8.752C40.5923 8.62933 40.3709 8.568 40.1203 8.568C39.8803 8.568 39.6643 8.62933 39.4723 8.752C39.2803 8.86933 39.1309 9.03467 39.0243 9.248C38.9176 9.456 38.8643 9.70133 38.8643 9.984C38.8643 10.2667 38.9176 10.5147 39.0243 10.728C39.1309 10.9413 39.2803 11.1067 39.4723 11.224C39.6643 11.3413 39.8803 11.4 40.1203 11.4Z" fill="#171717"/>
<defs>
<linearGradient id="paint0_linear_0_1" x1="-10.8429" y1="9" x2="63.1714" y2="9" gradientUnits="userSpaceOnUse">
<stop stop-color="#FFBE00"/>
<stop offset="1" stop-color="#FFD456"/>
</linearGradient>
</defs>
</svg>
