<svg width="47" height="48" viewBox="0 0 47 48" fill="none" xmlns="http://www.w3.org/2000/svg">
<rect x="0.5" y="0.5" width="46" height="47" rx="11.5" fill="white"/>
<rect x="0.5" y="0.5" width="46" height="47" rx="11.5" stroke="#EBEBEB"/>
<path d="M25.4227 27.6492C25.4227 28.5164 24.8524 29.2555 24.0668 29.5057V30.3903C24.0668 30.7104 23.8049 30.9723 23.4848 30.9723C23.1647 30.9723 22.9028 30.7104 22.9028 30.3903V29.5057C22.5088 29.3799 22.1647 29.1324 21.9201 28.7989C21.6754 28.4654 21.5427 28.0629 21.541 27.6492C21.541 26.7821 22.1172 26.0488 22.9028 25.7986V17.6103C22.9028 17.2902 23.1647 17.0283 23.4848 17.0283C23.8049 17.0283 24.0668 17.2902 24.0668 17.6103V25.7986C24.8524 26.0488 25.4227 26.7821 25.4227 27.6492ZM30.4684 22.9993C30.4684 23.8664 29.8923 24.6055 29.1066 24.8558V30.3903C29.1066 30.7104 28.8447 30.9723 28.5246 30.9723C28.2045 30.9723 27.9427 30.7104 27.9427 30.3903V24.8558C27.5489 24.731 27.2051 24.4841 26.9611 24.1509C26.717 23.8176 26.5855 23.4153 26.5855 23.0022C26.5855 22.5892 26.717 22.1868 26.9611 21.8536C27.2051 21.5203 27.5489 21.2734 27.9427 21.1487V17.6103C27.9427 17.2902 28.2045 17.0283 28.5246 17.0283C28.8447 17.0283 29.1066 17.2902 29.1066 17.6103V21.1487C29.8923 21.3989 30.4684 22.1322 30.4684 22.9993ZM20.3829 20.9682C20.3829 21.8354 19.8067 22.5687 19.0211 22.8189V30.3903C19.0211 30.7104 18.765 30.9723 18.4391 30.9723C18.119 30.9723 17.8572 30.7104 17.8572 30.3903V22.8189C17.4634 22.6942 17.1196 22.4473 16.8756 22.114C16.6315 21.7807 16.5 21.3784 16.5 20.9653C16.5 20.5523 16.6315 20.15 16.8756 19.8167C17.1196 19.4834 17.4634 19.2365 17.8572 19.1118V17.6103C17.8572 17.2902 18.119 17.0283 18.4391 17.0283C18.765 17.0283 19.0211 17.2902 19.0211 17.6103V19.1118C19.8067 19.362 20.3829 20.1011 20.3829 20.9682Z" fill="#696969"/>
</svg>
