<svg width="50" height="62" viewBox="0 0 50 62" fill="none" xmlns="http://www.w3.org/2000/svg">
<rect x="34" width="15.0811" height="45.2432" rx="7.54054" fill="#268270"/>
<rect x="17" y="10" width="14" height="35" rx="7" fill="#268270"/>
<rect y="21" width="14" height="24" rx="7" fill="#268270"/>
<path d="M2.51367 53.9724V48.9011H4.67667C5.6414 48.9011 6.12377 49.3069 6.12377 50.1178C6.12377 50.7773 5.65182 51.2652 4.70854 51.5826L6.44924 53.973H5.5844L3.97059 51.6924V51.2633C4.93961 51.1095 5.42443 50.7374 5.42443 50.1466C5.42443 49.6783 5.15536 49.4442 4.6166 49.4442H3.1695V53.973L2.51367 53.9724Z" fill="#268270"/>
<path d="M10.4568 48.9011V49.4331H7.79669V51.1352H10.333V51.6672H7.79669V53.4404H10.5101V53.9724H7.14087V48.9011H10.4568Z" fill="#268270"/>
<path d="M11.6712 53.9724H10.9902L13.1434 48.9011H13.8703L16.0333 53.9724H15.3064L14.6506 52.3764H12.9736L13.1545 51.8444H14.4306L13.4836 49.5465L11.6712 53.9724Z" fill="#268270"/>
<path d="M17.3803 48.9011V53.4404H20.033V53.9724H16.7245V48.9011H17.3803Z" fill="#268270"/>
<path d="M25.9018 48.9011V49.4331H23.2418V51.1352H25.778V51.6672H23.2418V53.4404H25.9552V53.9724H22.5859V48.9011H25.9018Z" fill="#268270"/>
<path d="M26.8774 53.7954V53.1929C27.4088 53.3823 27.9838 53.4767 28.6016 53.4767C29.4738 53.4767 29.9102 53.1574 29.9102 52.5187C29.9102 51.9751 29.5884 51.7029 28.9454 51.7029H28.2933C27.2317 51.7029 26.7009 51.242 26.7009 50.3196C26.7009 49.3499 27.38 48.8657 28.7395 48.8657C29.331 48.8657 29.8801 48.9368 30.3889 49.0784V49.6809C29.8801 49.4915 29.3304 49.3971 28.7395 49.3971C27.8177 49.3971 27.3567 49.7042 27.3567 50.319C27.3567 50.8626 27.6687 51.1348 28.2927 51.1348H28.9448C30.0254 51.1348 30.566 51.5957 30.566 52.5175C30.566 53.5104 29.9114 54.0075 28.6016 54.0075C27.9838 54.0081 27.4088 53.937 26.8774 53.7954Z" fill="#268270"/>
<path d="M34.9481 48.9011V49.4331H33.3515V53.9724H32.6956V49.4331H31.0996V48.9011H34.9481Z" fill="#268270"/>
<path d="M35.3626 53.9724H34.6816L36.8348 48.9011H37.5611L39.7241 53.9724H38.9972L38.3414 52.3764H36.6644L36.8452 51.8444H38.1213L37.1744 49.5465L35.3626 53.9724Z" fill="#268270"/>
<path d="M43.3049 48.9011V49.4331H41.7089V53.9724H41.0531V49.4331H39.457V48.9011H43.3049Z" fill="#268270"/>
<path d="M47.4021 48.9011V49.4331H44.742V51.1352H47.2777V51.6672H44.742V53.4404H47.4548V53.9724H44.0862V48.9011H47.4021Z" fill="#268270"/>
</svg>
