<svg width="256" height="48" viewBox="0 0 256 48" fill="none" xmlns="http://www.w3.org/2000/svg">
<rect x="0.5" y="0.5" width="255" height="47" rx="11.5" fill="white"/>
<rect x="0.5" y="0.5" width="255" height="47" rx="11.5" stroke="#EBEBEB"/>
<path d="M32.7344 31.7093L30.1932 29.177C31.5708 27.4751 32.2428 25.3094 32.0707 23.1266C31.8986 20.9437 30.8954 18.9102 29.2681 17.4452C27.6407 15.9802 25.5132 15.1955 23.3244 15.2529C21.1355 15.3104 19.0521 16.2055 17.5038 17.7538C15.9555 19.3021 15.0604 21.3855 15.0029 23.5744C14.9455 25.7632 15.7302 27.8907 17.1952 29.5181C18.6602 31.1454 20.6937 32.1486 22.8766 32.3207C25.0594 32.4928 27.2251 31.8208 28.927 30.4432L31.4593 32.9844C31.5428 33.0685 31.6421 33.1354 31.7515 33.1809C31.8609 33.2265 31.9783 33.25 32.0968 33.25C32.2154 33.25 32.3327 33.2265 32.4422 33.1809C32.5516 33.1354 32.6509 33.0685 32.7344 32.9844C32.8185 32.9009 32.8854 32.8016 32.9309 32.6922C32.9765 32.5827 33 32.4654 33 32.3468C33 32.2283 32.9765 32.1109 32.9309 32.0015C32.8854 31.8921 32.8185 31.7928 32.7344 31.7093ZM16.8315 23.8162C16.8315 22.4842 17.2265 21.1821 17.9665 20.0746C18.7065 18.9671 19.7584 18.1039 20.989 17.5942C22.2196 17.0844 23.5737 16.9511 24.8801 17.2109C26.1865 17.4708 27.3865 18.1122 28.3284 19.0541C29.2702 19.9959 29.9116 21.1959 30.1715 22.5023C30.4314 23.8087 30.298 25.1629 29.7883 26.3935C29.2785 27.6241 28.4153 28.6759 27.3078 29.4159C26.2003 30.1559 24.8982 30.5509 23.5662 30.5509C21.7801 30.5509 20.0671 29.8414 18.8041 28.5784C17.5411 27.3154 16.8315 25.6024 16.8315 23.8162Z" fill="#696969"/>
<path d="M48.172 29.168C47.4533 29.168 46.828 29.0373 46.296 28.776C45.764 28.5147 45.3533 28.1507 45.064 27.684C44.7747 27.2173 44.63 26.676 44.63 26.06H45.862C45.862 26.4427 45.9507 26.7973 46.128 27.124C46.3053 27.4413 46.562 27.698 46.898 27.894C47.2433 28.0807 47.668 28.174 48.172 28.174C48.6107 28.174 48.984 28.104 49.292 27.964C49.6093 27.8147 49.8473 27.614 50.006 27.362C50.174 27.11 50.258 26.8253 50.258 26.508C50.258 26.1253 50.174 25.8173 50.006 25.584C49.8473 25.3413 49.628 25.1453 49.348 24.996C49.068 24.8467 48.7413 24.716 48.368 24.604C48.004 24.4827 47.6213 24.3567 47.22 24.226C46.4453 23.9647 45.876 23.638 45.512 23.246C45.148 22.854 44.966 22.3453 44.966 21.72C44.966 21.188 45.0873 20.7213 45.33 20.32C45.582 19.9187 45.9367 19.606 46.394 19.382C46.8607 19.1487 47.4113 19.032 48.046 19.032C48.6713 19.032 49.2127 19.1487 49.67 19.382C50.1367 19.6153 50.5007 19.9373 50.762 20.348C51.0233 20.7493 51.154 21.216 51.154 21.748H49.922C49.922 21.4773 49.852 21.2113 49.712 20.95C49.572 20.6887 49.3573 20.474 49.068 20.306C48.788 20.1287 48.4333 20.04 48.004 20.04C47.6493 20.0307 47.332 20.0913 47.052 20.222C46.7813 20.3433 46.5667 20.5207 46.408 20.754C46.2587 20.9873 46.184 21.272 46.184 21.608C46.184 21.9253 46.2493 22.182 46.38 22.378C46.52 22.574 46.716 22.742 46.968 22.882C47.2293 23.0127 47.5327 23.134 47.878 23.246C48.2233 23.358 48.606 23.484 49.026 23.624C49.502 23.7827 49.922 23.9787 50.286 24.212C50.6593 24.436 50.9487 24.7253 51.154 25.08C51.3687 25.4347 51.476 25.8873 51.476 26.438C51.476 26.9047 51.35 27.348 51.098 27.768C50.8553 28.1787 50.4913 28.5147 50.006 28.776C49.5207 29.0373 48.9093 29.168 48.172 29.168ZM56.3351 29.168C55.6724 29.168 55.0844 29.014 54.5711 28.706C54.0671 28.398 53.6704 27.9687 53.3811 27.418C53.0918 26.858 52.9471 26.2093 52.9471 25.472C52.9471 24.7253 53.0871 24.0767 53.3671 23.526C53.6564 22.9753 54.0578 22.546 54.5711 22.238C55.0938 21.93 55.6911 21.776 56.3631 21.776C57.0538 21.776 57.6371 21.93 58.1131 22.238C58.5984 22.546 58.9671 22.952 59.2191 23.456C59.4804 23.9507 59.6111 24.4967 59.6111 25.094C59.6111 25.1873 59.6111 25.2853 59.6111 25.388C59.6111 25.4907 59.6064 25.6073 59.5971 25.738H53.8291V24.828H58.4631C58.4351 24.184 58.2204 23.68 57.8191 23.316C57.4271 22.952 56.9324 22.77 56.3351 22.77C55.9338 22.77 55.5604 22.8633 55.2151 23.05C54.8791 23.2273 54.6084 23.4933 54.4031 23.848C54.1978 24.1933 54.0951 24.6273 54.0951 25.15V25.542C54.0951 26.1207 54.1978 26.606 54.4031 26.998C54.6178 27.39 54.8931 27.684 55.2291 27.88C55.5744 28.076 55.9431 28.174 56.3351 28.174C56.8298 28.174 57.2358 28.0667 57.5531 27.852C57.8798 27.628 58.1131 27.3293 58.2531 26.956H59.4151C59.3031 27.376 59.1071 27.754 58.8271 28.09C58.5471 28.426 58.1971 28.692 57.7771 28.888C57.3664 29.0747 56.8858 29.168 56.3351 29.168ZM63.6341 29.168C63.0648 29.168 62.5888 29.07 62.2061 28.874C61.8235 28.6687 61.5388 28.4027 61.3521 28.076C61.1655 27.74 61.0721 27.376 61.0721 26.984C61.0721 26.508 61.1935 26.1067 61.4361 25.78C61.6881 25.444 62.0381 25.192 62.4861 25.024C62.9435 24.8467 63.4801 24.758 64.0961 24.758H65.9581C65.9581 24.3193 65.8881 23.9553 65.7481 23.666C65.6175 23.3673 65.4215 23.1433 65.1601 22.994C64.9081 22.8447 64.5908 22.77 64.2081 22.77C63.7601 22.77 63.3728 22.882 63.0461 23.106C62.7195 23.33 62.5188 23.6613 62.4441 24.1H61.2401C61.2961 23.596 61.4641 23.176 61.7441 22.84C62.0335 22.4947 62.3975 22.2333 62.8361 22.056C63.2748 21.8693 63.7321 21.776 64.2081 21.776C64.8615 21.776 65.4028 21.8973 65.8321 22.14C66.2708 22.3733 66.5975 22.7047 66.8121 23.134C67.0268 23.554 67.1341 24.0533 67.1341 24.632V29H66.0841L66.0141 27.754C65.9208 27.95 65.7995 28.1367 65.6501 28.314C65.5101 28.482 65.3421 28.6313 65.1461 28.762C64.9501 28.8833 64.7261 28.9813 64.4741 29.056C64.2315 29.1307 63.9515 29.168 63.6341 29.168ZM63.8161 28.174C64.1428 28.174 64.4368 28.1087 64.6981 27.978C64.9688 27.838 65.1975 27.6513 65.3841 27.418C65.5708 27.1753 65.7108 26.9093 65.8041 26.62C65.9068 26.3307 65.9581 26.0273 65.9581 25.71V25.668H64.1941C63.7368 25.668 63.3681 25.724 63.0881 25.836C62.8081 25.9387 62.6075 26.088 62.4861 26.284C62.3648 26.4707 62.3041 26.6853 62.3041 26.928C62.3041 27.18 62.3601 27.3993 62.4721 27.586C62.5935 27.7727 62.7661 27.9173 62.9901 28.02C63.2235 28.1227 63.4988 28.174 63.8161 28.174ZM69.0934 29V21.944H70.1574L70.2414 23.288C70.4 22.9707 70.6007 22.7 70.8434 22.476C71.0954 22.252 71.394 22.0793 71.7394 21.958C72.094 21.8367 72.4954 21.776 72.9434 21.776V23.008H72.5094C72.2107 23.008 71.926 23.05 71.6554 23.134C71.3847 23.2087 71.142 23.3347 70.9274 23.512C70.722 23.6893 70.5587 23.932 70.4374 24.24C70.3254 24.5387 70.2694 24.912 70.2694 25.36V29H69.0934ZM77.3332 29.168C76.6706 29.168 76.0732 29.014 75.5412 28.706C75.0186 28.398 74.6079 27.9687 74.3092 27.418C74.0106 26.858 73.8612 26.214 73.8612 25.486C73.8612 24.7393 74.0106 24.0907 74.3092 23.54C74.6079 22.9893 75.0186 22.56 75.5412 22.252C76.0732 21.9347 76.6706 21.776 77.3332 21.776C78.1732 21.776 78.8732 21.9953 79.4332 22.434C79.9932 22.8633 80.3479 23.442 80.4972 24.17H79.2932C79.1999 23.7313 78.9712 23.3907 78.6072 23.148C78.2432 22.9053 77.8139 22.784 77.3192 22.784C76.9179 22.784 76.5446 22.8867 76.1992 23.092C75.8539 23.288 75.5786 23.5867 75.3732 23.988C75.1679 24.3893 75.0652 24.884 75.0652 25.472C75.0652 25.9107 75.1259 26.3027 75.2472 26.648C75.3686 26.984 75.5319 27.264 75.7372 27.488C75.9426 27.712 76.1806 27.8847 76.4512 28.006C76.7312 28.118 77.0206 28.174 77.3192 28.174C77.6552 28.174 77.9586 28.1227 78.2292 28.02C78.4999 27.908 78.7286 27.7447 78.9152 27.53C79.1019 27.3153 79.2279 27.0633 79.2932 26.774H80.4972C80.3479 27.4833 79.9886 28.062 79.4192 28.51C78.8592 28.9487 78.1639 29.168 77.3332 29.168ZM82.307 29V18.92H83.483V23.134C83.7163 22.714 84.043 22.3827 84.463 22.14C84.8923 21.8973 85.359 21.776 85.863 21.776C86.4043 21.776 86.8756 21.888 87.277 22.112C87.6783 22.3267 87.9863 22.658 88.201 23.106C88.4156 23.554 88.523 24.1187 88.523 24.8V29H87.361V24.926C87.361 24.2167 87.2116 23.6847 86.913 23.33C86.6143 22.966 86.1803 22.784 85.611 22.784C85.2096 22.784 84.8456 22.882 84.519 23.078C84.2016 23.274 83.9496 23.554 83.763 23.918C83.5763 24.282 83.483 24.73 83.483 25.262V29H82.307Z" fill="#696969"/>
</svg>
