<svg width="75" height="75" viewBox="0 0 75 75" fill="none" xmlns="http://www.w3.org/2000/svg">
<rect x="2.5" y="2.5" width="70" height="70" rx="35" fill="#2F8D79"/>
<rect x="2.5" y="2.5" width="70" height="70" rx="35" stroke="white" stroke-width="5"/>
<path d="M44.0938 36.5938H38.9062V31.4062C38.9062 30.6296 38.2767 30 37.5 30C36.7233 30 36.0938 30.6296 36.0938 31.4062V36.5938H30.9062C30.1296 36.5938 29.5 37.2233 29.5 38C29.5 38.7767 30.1296 39.4062 30.9062 39.4062H36.0938V44.5938C36.0938 45.3704 36.7233 46 37.5 46C38.2767 46 38.9062 45.3704 38.9062 44.5938V39.4062H44.0938C44.8704 39.4062 45.5 38.7767 45.5 38C45.5 37.2233 44.8704 36.5938 44.0938 36.5938Z" fill="white"/>
</svg>
