<svg width="105" height="40" viewBox="0 0 105 40" fill="none" xmlns="http://www.w3.org/2000/svg">
<path d="M62.6229 19.268L55.4683 11.268C55.2507 11.0958 54.9643 11.0001 54.6669 11H1.17857C0.528 11 0 11.448 0 12V28C0 28.552 0.528 29 1.17857 29H54.6669C54.9643 28.9999 55.2507 28.9042 55.4683 28.732L62.6229 20.732C62.8633 20.544 63 20.278 63 20C63 19.722 62.8633 19.456 62.6229 19.268Z" fill="url(#paint0_linear_237_7337)"/>
<path d="M9.584 23V17.4H13.064V18.056H10.384V19.872H12.624V20.512H10.384V23H9.584ZM13.8799 23V18.968H14.5999L14.6719 19.728C14.7626 19.5467 14.8799 19.3947 15.0239 19.272C15.1679 19.144 15.3359 19.0453 15.5279 18.976C15.7253 18.9067 15.9493 18.872 16.1999 18.872V19.72H15.9119C15.7466 19.72 15.5893 19.7413 15.4399 19.784C15.2906 19.8213 15.1573 19.888 15.0399 19.984C14.9279 20.08 14.8399 20.2107 14.7759 20.376C14.7119 20.5413 14.6799 20.7467 14.6799 20.992V23H13.8799ZM18.6414 23.096C18.2574 23.096 17.9161 23.008 17.6174 22.832C17.3188 22.656 17.0841 22.4107 16.9134 22.096C16.7481 21.7813 16.6654 21.416 16.6654 21C16.6654 20.5733 16.7481 20.2027 16.9134 19.888C17.0841 19.568 17.3188 19.32 17.6174 19.144C17.9161 18.9627 18.2628 18.872 18.6574 18.872C19.0521 18.872 19.3908 18.96 19.6734 19.136C19.9561 19.312 20.1748 19.5467 20.3294 19.84C20.4841 20.128 20.5614 20.448 20.5614 20.8C20.5614 20.8533 20.5588 20.912 20.5534 20.976C20.5534 21.0347 20.5508 21.1013 20.5454 21.176H17.2494V20.608H19.7614C19.7454 20.272 19.6334 20.0107 19.4254 19.824C19.2174 19.632 18.9588 19.536 18.6494 19.536C18.4308 19.536 18.2308 19.5867 18.0494 19.688C17.8681 19.784 17.7214 19.928 17.6094 20.12C17.5028 20.3067 17.4494 20.544 17.4494 20.832V21.056C17.4494 21.3547 17.5028 21.608 17.6094 21.816C17.7214 22.0187 17.8681 22.1733 18.0494 22.28C18.2308 22.3813 18.4281 22.432 18.6414 22.432C18.8974 22.432 19.1081 22.376 19.2734 22.264C19.4388 22.152 19.5614 22 19.6414 21.808H20.4414C20.3721 22.0533 20.2548 22.2747 20.0894 22.472C19.9241 22.664 19.7188 22.816 19.4734 22.928C19.2334 23.04 18.9561 23.096 18.6414 23.096ZM22.7863 23.096C22.4556 23.096 22.1809 23.04 21.9622 22.928C21.7436 22.816 21.5809 22.6667 21.4743 22.48C21.3676 22.288 21.3143 22.0827 21.3143 21.864C21.3143 21.5973 21.3836 21.3707 21.5223 21.184C21.6609 20.992 21.8583 20.8453 22.1143 20.744C22.3703 20.6427 22.6769 20.592 23.0343 20.592H24.0823C24.0823 20.3573 24.0476 20.1627 23.9783 20.008C23.9089 19.8533 23.8049 19.7387 23.6663 19.664C23.5329 19.584 23.3623 19.544 23.1543 19.544C22.9143 19.544 22.7089 19.6027 22.5383 19.72C22.3676 19.832 22.2609 20 22.2183 20.224H21.4183C21.4503 19.9413 21.5463 19.7013 21.7063 19.504C21.8716 19.3013 22.0823 19.1467 22.3383 19.04C22.5943 18.928 22.8663 18.872 23.1543 18.872C23.5329 18.872 23.8503 18.9387 24.1063 19.072C24.3623 19.2053 24.5543 19.3947 24.6823 19.64C24.8156 19.88 24.8823 20.168 24.8823 20.504V23H24.1863L24.1223 22.32C24.0636 22.4267 23.9943 22.528 23.9143 22.624C23.8343 22.72 23.7383 22.8027 23.6263 22.872C23.5196 22.9413 23.3943 22.9947 23.2503 23.032C23.1116 23.0747 22.9569 23.096 22.7863 23.096ZM22.9383 22.448C23.1089 22.448 23.2636 22.4133 23.4023 22.344C23.5409 22.2747 23.6583 22.1813 23.7543 22.064C23.8556 21.9413 23.9303 21.8053 23.9783 21.656C24.0316 21.5013 24.0609 21.344 24.0663 21.184V21.16H23.1143C22.8849 21.16 22.6983 21.1893 22.5543 21.248C22.4156 21.3013 22.3143 21.376 22.2503 21.472C22.1863 21.568 22.1543 21.68 22.1543 21.808C22.1543 21.9413 22.1836 22.056 22.2423 22.152C22.3063 22.2427 22.3969 22.3147 22.5143 22.368C22.6316 22.4213 22.7729 22.448 22.9383 22.448ZM27.4814 23C27.2254 23 27.0041 22.96 26.8174 22.88C26.6308 22.8 26.4868 22.6667 26.3854 22.48C26.2841 22.2933 26.2334 22.04 26.2334 21.72V19.648H25.5374V18.968H26.2334L26.3294 17.96H27.0334V18.968H28.1774V19.648H27.0334V21.728C27.0334 21.9573 27.0814 22.1147 27.1774 22.2C27.2734 22.28 27.4388 22.32 27.6734 22.32H28.1374V23H27.4814ZM30.5396 23.096C30.225 23.096 29.9503 23.032 29.7156 22.904C29.4863 22.776 29.3076 22.584 29.1796 22.328C29.057 22.072 28.9956 21.7493 28.9956 21.36V18.968H29.7956V21.272C29.7956 21.6507 29.8783 21.936 30.0436 22.128C30.209 22.32 30.4463 22.416 30.7556 22.416C30.9636 22.416 31.1503 22.3653 31.3156 22.264C31.4863 22.1627 31.6196 22.016 31.7156 21.824C31.8116 21.632 31.8596 21.3973 31.8596 21.12V18.968H32.6596V23H31.9476L31.8916 22.312C31.769 22.5573 31.5903 22.7493 31.3556 22.888C31.121 23.0267 30.849 23.096 30.5396 23.096ZM33.7549 23V18.968H34.4749L34.5469 19.728C34.6376 19.5467 34.7549 19.3947 34.8989 19.272C35.0429 19.144 35.2109 19.0453 35.4029 18.976C35.6003 18.9067 35.8243 18.872 36.0749 18.872V19.72H35.7869C35.6216 19.72 35.4643 19.7413 35.3149 19.784C35.1656 19.8213 35.0323 19.888 34.9149 19.984C34.8029 20.08 34.7149 20.2107 34.6509 20.376C34.5869 20.5413 34.5549 20.7467 34.5549 20.992V23H33.7549ZM38.5164 23.096C38.1324 23.096 37.7911 23.008 37.4924 22.832C37.1938 22.656 36.9591 22.4107 36.7884 22.096C36.6231 21.7813 36.5404 21.416 36.5404 21C36.5404 20.5733 36.6231 20.2027 36.7884 19.888C36.9591 19.568 37.1938 19.32 37.4924 19.144C37.7911 18.9627 38.1378 18.872 38.5324 18.872C38.9271 18.872 39.2658 18.96 39.5484 19.136C39.8311 19.312 40.0498 19.5467 40.2044 19.84C40.3591 20.128 40.4364 20.448 40.4364 20.8C40.4364 20.8533 40.4338 20.912 40.4284 20.976C40.4284 21.0347 40.4258 21.1013 40.4204 21.176H37.1244V20.608H39.6364C39.6204 20.272 39.5084 20.0107 39.3004 19.824C39.0924 19.632 38.8338 19.536 38.5244 19.536C38.3058 19.536 38.1058 19.5867 37.9244 19.688C37.7431 19.784 37.5964 19.928 37.4844 20.12C37.3778 20.3067 37.3244 20.544 37.3244 20.832V21.056C37.3244 21.3547 37.3778 21.608 37.4844 21.816C37.5964 22.0187 37.7431 22.1733 37.9244 22.28C38.1058 22.3813 38.3031 22.432 38.5164 22.432C38.7724 22.432 38.9831 22.376 39.1484 22.264C39.3138 22.152 39.4364 22 39.5164 21.808H40.3164C40.2471 22.0533 40.1298 22.2747 39.9644 22.472C39.7991 22.664 39.5938 22.816 39.3484 22.928C39.1084 23.04 38.8311 23.096 38.5164 23.096ZM43.1173 23.096C42.7333 23.096 42.3946 23.0053 42.1013 22.824C41.8079 22.6373 41.5786 22.3867 41.4133 22.072C41.2533 21.752 41.1733 21.3893 41.1733 20.984C41.1733 20.5733 41.2533 20.2107 41.4133 19.896C41.5786 19.5813 41.8079 19.3333 42.1013 19.152C42.3999 18.9653 42.7413 18.872 43.1253 18.872C43.4399 18.872 43.7173 18.936 43.9573 19.064C44.1973 19.1867 44.3839 19.3627 44.5173 19.592V17.24H45.3173V23H44.5973L44.5173 22.376C44.4373 22.4987 44.3333 22.616 44.2053 22.728C44.0773 22.8347 43.9226 22.9227 43.7413 22.992C43.5599 23.0613 43.3519 23.096 43.1173 23.096ZM43.2453 22.4C43.4959 22.4 43.7173 22.3413 43.9093 22.224C44.1013 22.1067 44.2479 21.9413 44.3493 21.728C44.4559 21.5147 44.5093 21.2667 44.5093 20.984C44.5093 20.7013 44.4559 20.456 44.3493 20.248C44.2479 20.0347 44.1013 19.8693 43.9093 19.752C43.7173 19.6293 43.4959 19.568 43.2453 19.568C43.0053 19.568 42.7893 19.6293 42.5973 19.752C42.4053 19.8693 42.2559 20.0347 42.1493 20.248C42.0426 20.456 41.9893 20.7013 41.9893 20.984C41.9893 21.2667 42.0426 21.5147 42.1493 21.728C42.2559 21.9413 42.4053 22.1067 42.5973 22.224C42.7893 22.3413 43.0053 22.4 43.2453 22.4Z" fill="#171717"/>
<defs>
<linearGradient id="paint0_linear_237_7337" x1="-10.8429" y1="20" x2="63.1714" y2="20" gradientUnits="userSpaceOnUse">
<stop stop-color="#FFBE00"/>
<stop offset="1" stop-color="#FFD456"/>
</linearGradient>
</defs>
</svg>
